<?xml version="1.0" standalone="no"?>
<!DOCTYPE svg PUBLIC "-//W3C//DTD SVG 1.1//EN" "http://www.w3.org/Graphics/SVG/1.1/DTD/svg11.dtd" >
<svg xmlns="http://www.w3.org/2000/svg">
<metadata>
Created by FontPrep 20130207 at Wed Aug 17 11:19:14 2016
 By Matt Graham
Copyright (c) 2009 by Jos Buivenga. All rights reserved.
</metadata>
<defs>
<font id="7b3822210222b32bda062ef31191681b" horiz-adv-x='1024' >
  <font-face 
    font-family="MuseoSlab-300"
    font-weight="300"
    font-stretch="normal"
    units-per-em="2048"
    panose-1="2 0 0 0 0 0 0 0 0 0"
    ascent="1536"
    descent="-512"
    x-height="1030"
    cap-height="1440"
    bbox="-252 -444 2228 1825"
    underline-thickness="102"
    underline-position="-102"
    unicode-range="U+0020-FB04"
  />
<missing-glyph horiz-adv-x="1044" 
d="M174 102h696l-348 523zM113 195l348 522l-348 522v-1044zM584 717l348 -522v1044zM522 809l348 522h-696zM10 0v1434h1024v-1434h-1024z" />
    <glyph glyph-name="f_f" unicode="ff" horiz-adv-x="1400" 
d="M94 0v115h174v800h-184v115h184v53q0 297 237 355q48 12 99 12l84 -6v-121q-27 6 -65 6q-39 0 -69 -8q-149 -39 -146 -236v-55h536v53q0 297 235 355q48 12 99 12l84 -6v-121q-27 6 -65 6q-39 0 -69 -8q-146 -38 -145 -236v-55h260v-115h-260v-800h203v-115h-516v115h174
v800h-536v-800h204v-115h-518z" />
    <glyph glyph-name="fi" unicode="fi" horiz-adv-x="1314" 
d="M934 1266v174h158v-174h-158zM94 0v115h174v800h-184v115h184v53q0 297 237 355q48 12 99 12l84 -6v-121q-27 6 -65 6q-39 0 -69 -8q-149 -39 -146 -236v-55h675v-915h174v-115h-487v115h174v800h-536v-800h204v-115h-518z" />
    <glyph glyph-name="fl" unicode="fl" horiz-adv-x="1271" 
d="M94 0v115h174v800h-184v115h184v35q0 308 283 384q72 19 203 19t245 -34l39 -13v-1153q0 -74 26 -114t99 -39l49 4v-119q-39 -6 -77 -6q-236 0 -236 264v1069q-59 25 -191 25t-216 -66t-84 -219v-37h262v-115h-262v-800h204v-115h-518z" />
    <glyph glyph-name="f_f_i" unicode="ffi" horiz-adv-x="1988" 
d="M1608 1266v174h157v-174h-157zM94 0v115h174v800h-184v115h184v53q0 297 237 355q48 12 99 12l84 -6v-121q-27 6 -65 6q-39 0 -69 -8q-149 -39 -146 -236v-55h536v53q0 297 235 355q48 12 99 12l84 -6v-121q-27 6 -65 6q-39 0 -69 -8q-146 -38 -145 -236v-55h674v-915
h174v-115h-487v115h174v800h-535v-800h203v-115h-516v115h174v800h-536v-800h204v-115h-518z" />
    <glyph glyph-name="f_f_l" unicode="ffl" horiz-adv-x="1945" 
d="M94 0v115h174v800h-184v115h184v53q0 298 238 355q49 12 102 12l80 -6v-121q-30 6 -66 6t-67 -8q-150 -39 -147 -236v-55h536v35q0 115 39 198t104 125q126 80 300 80t284 -34l41 -13v-1153q0 -74 26 -114t99 -39l49 4v-119q-39 -6 -78 -6q-236 0 -235 264v1069
q-59 25 -191 25t-215 -66q-84 -66 -84 -219v-37h260v-115h-260v-800h203v-115h-516v115h174v800h-536v-800h204v-115h-518z" />
    <glyph glyph-name="f_j" unicode="fj" horiz-adv-x="1247" 
d="M924 1266v174h151v-174h-151zM94 0v115h174v800h-184v115h184v53q0 297 237 355q48 12 99 12l84 -6v-121q-27 6 -65 6q-39 0 -69 -8q-149 -39 -146 -236v-55h661v-1067q0 -98 -27 -171q-48 -128 -157 -176q-84 -38 -176 -38l-60 6v119q18 -4 50 -4t67 9q164 42 164 257
v950h-522v-800h204v-115h-518z" />
    <glyph glyph-name=".notdef" horiz-adv-x="1044" 
d="M174 102h696l-348 523zM113 195l348 522l-348 522v-1044zM584 717l348 -522v1044zM522 809l348 522h-696zM10 0v1434h1024v-1434h-1024z" />
    <glyph glyph-name=".null" horiz-adv-x="0" 
 />
    <glyph glyph-name="nonmarkingreturn" horiz-adv-x="681" 
 />
    <glyph glyph-name="space" unicode=" " horiz-adv-x="512" 
 />
    <glyph glyph-name="exclam" unicode="!" horiz-adv-x="479" 
d="M160 0v162h162v-162h-162zM174 377l-6 1063h143l-6 -1063h-131z" />
    <glyph glyph-name="quotedbl" unicode="&#x22;" horiz-adv-x="651" 
d="M141 1049v411h121v-411h-121zM389 1049v411h121v-411h-121z" />
    <glyph glyph-name="numbersign" unicode="#" horiz-adv-x="1482" 
d="M530 514h355l71 401h-354zM315 0l72 399h-291l19 115h291l71 401h-291l21 115h289l71 410h125l-71 -410h354l72 410h124l-71 -410h289l-21 -115h-287l-71 -401h286l-20 -115h-285l-71 -399h-125l69 399h-352l-72 -399h-125z" />
    <glyph glyph-name="dollar" unicode="$" horiz-adv-x="1083" 
d="M844 375q0 99 -75 161t-181 103t-212 87t-182 132q-75 86 -75 217t103 231t274 121v226h114v-221q98 -6 184 -40t124 -65l34 -33l-67 -112q-40 40 -137 81q-97 40 -179 40q-137 0 -221 -67t-84 -156t53 -148t135 -92t174 -73q93 -40 174 -80t134 -116t53 -178
q0 -151 -102 -259t-275 -124v-221h-114v221q-115 8 -215 53t-144 87l-43 40l84 105q95 -95 251 -140q62 -17 126 -18q123 0 206 69t83 169z" />
    <glyph glyph-name="percent" unicode="%" horiz-adv-x="1462" 
d="M1077 430q-70 0 -117 -50t-47 -121q-1 -71 47 -120t118 -49t118 49q49 49 49 120t-49 121t-119 50zM791 259q0 118 83 202q84 84 203 84t204 -84t85 -202t-85 -201t-204 -83t-203 83q-83 83 -83 201zM385 1010q70 0 119 49t49 120t-49 121t-119 50t-117 -50t-47 -122
q0 -70 47 -119t117 -49zM111 0l1097 1440h146l-1096 -1440h-147zM386 895q-120 0 -204 83t-84 201q0 117 84 201t203 84t204 -84t85 -202t-84 -200q-84 -83 -204 -83z" />
    <glyph glyph-name="ampersand" unicode="&#x26;" horiz-adv-x="1361" 
d="M631 707q-181 0 -277 -80t-96 -214t98 -220q98 -87 264 -87t261 96q94 96 94 296v209h-344zM113 397q0 129 70 236q71 106 196 143v4q-27 7 -67 35q-40 29 -66 62t-49 92t-23 131q0 166 123 265t328 99q53 0 141 -14l25 -6l-41 -119q-68 14 -119 14q-133 1 -221 -67
t-88 -170t53 -177q68 -96 262 -96h338v205h141v-205h195v-122h-195v-213q0 -252 -133 -385t-361 -133t-368 119q-141 120 -141 302z" />
    <glyph glyph-name="quotesingle" unicode="'" horiz-adv-x="403" 
d="M141 1049v411h121v-411h-121z" />
    <glyph glyph-name="parenleft" unicode="(" horiz-adv-x="616" 
d="M154 690q0 426 229 805h131q-231 -387 -231 -805q0 -473 231 -885h-131q-229 399 -229 885z" />
    <glyph glyph-name="parenright" unicode=")" horiz-adv-x="616" 
d="M102 -195q231 416 232 885q0 414 -232 805h129q231 -377 232 -805q0 -487 -232 -885h-129z" />
    <glyph glyph-name="asterisk" unicode="*" horiz-adv-x="983" 
d="M313 690l-108 78l192 246v4l-301 86l41 129l295 -109l-12 316h139l-12 -316l297 107l43 -125l-303 -88v-4l190 -246l-106 -80l-176 260h-5z" />
    <glyph glyph-name="plus" unicode="+" horiz-adv-x="1241" 
d="M86 522v119h473v522h125v-522h471v-119h-471v-522h-125v522h-473z" />
    <glyph glyph-name="comma" unicode="," horiz-adv-x="503" 
d="M49 -264l139 432h160l-178 -432h-121z" />
    <glyph glyph-name="hyphen" unicode="-" horiz-adv-x="1005" 
d="M213 518v127h580v-127h-580z" />
    <glyph glyph-name="period" unicode="." horiz-adv-x="497" 
d="M166 0v170h166v-170h-166z" />
    <glyph glyph-name="slash" unicode="/" horiz-adv-x="839" 
d="M94 -86l520 1606h131l-520 -1606h-131z" />
    <glyph glyph-name="zero" unicode="0" horiz-adv-x="1263" 
d="M631 106q199 0 278 180q72 161 72 435q0 612 -349 612q-349 1 -349 -613t348 -614zM632 -25q-497 1 -497 745t496 744q180 0 295 -102q114 -102 158 -262t44 -379q1 -746 -496 -746z" />
    <glyph glyph-name="one" unicode="1" horiz-adv-x="927" 
d="M102 0v123h322v1061l2 80h-4q-14 -31 -72 -86l-153 -152l-91 90l326 324h133v-1317h316v-123h-779z" />
    <glyph glyph-name="two" unicode="2" horiz-adv-x="1179" 
d="M109 92q0 119 55 219t137 167q82 66 179 136t179 128q81 58 137 140t56 190q0 106 -83 184t-210 77q-127 0 -208 -66t-109 -112l-15 -20l-102 69q6 10 16 28t49 62q39 45 85 80t123 63t163 27q199 0 319 -114t119 -289q1 -133 -75 -242t-185 -185t-217 -148
q-260 -177 -260 -363h674v201h131v-324h-950q-8 43 -8 92z" />
    <glyph glyph-name="three" unicode="3" horiz-adv-x="1148" 
d="M522 729q-52 0 -76 -4h-14l-37 86l389 461l50 45v4q-41 -4 -68 -4h-481v-197h-131v320h852v-101l-426 -493q152 -8 287 -95q71 -46 114 -130t43 -195q0 -186 -136 -318t-339 -133q-158 0 -277 66q-118 66 -161 111l-19 20l86 104q16 -18 47 -47t127 -75t212 -48
q116 0 214 90t98 230q0 139 -102 221q-104 82 -252 82z" />
    <glyph glyph-name="four" unicode="4" horiz-adv-x="1200" 
d="M225 520h551v649l8 95h-6q-20 -43 -47 -80l-506 -660v-4zM57 399v93l707 948h154v-920h204v-121h-204v-399h-142v399h-719z" />
    <glyph glyph-name="five" unicode="5" horiz-adv-x="1136" 
d="M520 786q-70 0 -138 -20t-99 -41l-33 -20l-90 32l78 703h702v-320h-129v197h-451l-47 -406l-10 -57h4q94 55 234 55q209 0 348 -131q139 -132 139 -328t-146 -335t-352 -139t-365 119q-36 28 -52 48l-17 19l86 100q9 -14 48 -48q120 -105 280 -107q160 -1 265 99t105 244
q0 146 -100 241t-260 95z" />
    <glyph glyph-name="six" unicode="6" horiz-adv-x="1206" 
d="M281 541q0 -152 104 -293q103 -142 253 -142t234 98t84 252q0 156 -90 248t-235 92t-247 -79q-102 -80 -103 -176zM647 -25q-236 -1 -378 189t-142 483q0 237 100 456t298 311q107 50 207 50q166 0 263 -45l31 -14l-53 -123q-90 51 -222 51t-240 -88q-202 -164 -228 -491
h4q53 78 153 123t215 45q195 0 322 -130t127 -342t-131 -344t-326 -131z" />
    <glyph glyph-name="seven" unicode="7" horiz-adv-x="1089" 
d="M815 1317h-602v-197h-129v320h965v-99l-668 -1341h-148l619 1253l39 64v4q-35 -4 -76 -4z" />
    <glyph glyph-name="eight" unicode="8" horiz-adv-x="1218" 
d="M268 416q0 -136 102 -224t237 -88q134 0 235 81q100 81 100 206q0 154 -237 253q-108 45 -230 99q-207 -137 -207 -327zM324 1100q0 -128 143 -209q105 -62 295 -135q154 154 153 323q0 119 -82 188q-83 69 -217 69t-214 -68q-78 -68 -78 -168zM180 1089q0 163 114 269
t318 106t324 -102q121 -102 121 -268q0 -94 -45 -192t-76 -137q-31 -38 -57 -65q211 -121 211 -301t-136 -302t-341 -122q-204 1 -347 121t-143 301t108 295q77 81 131 115q-182 119 -182 282z" />
    <glyph glyph-name="nine" unicode="9" horiz-adv-x="1206" 
d="M250 985q0 -152 90 -244t234 -92t248 79q103 79 104 173q0 152 -106 292t-254 140t-232 -98t-84 -250zM102 992q0 210 131 341t326 131q233 0 377 -189t143 -482q0 -293 -148 -544q-73 -122 -200 -198t-289 -76q-70 1 -136 15t-95 30l-31 15l53 123q90 -51 209 -52
q211 0 336 174t146 408h-4q-52 -74 -154 -119t-215 -45q-197 0 -323 129t-126 339z" />
    <glyph glyph-name="colon" unicode=":" horiz-adv-x="610" 
d="M221 860v170h168v-170h-168zM221 0v170h168v-170h-168z" />
    <glyph glyph-name="semicolon" unicode=";" horiz-adv-x="608" 
d="M113 -264l120 432h160l-160 -432h-120zM225 860v170h164v-170h-164z" />
    <glyph glyph-name="less" unicode="&#x3c;" horiz-adv-x="1241" 
d="M135 530v103l926 414v-138l-754 -325v-4l754 -326v-137z" />
    <glyph glyph-name="equal" unicode="=" horiz-adv-x="1241" 
d="M143 344v119h955v-119h-955zM143 700v119h955v-119h-955z" />
    <glyph glyph-name="greater" unicode="&#x3e;" horiz-adv-x="1241" 
d="M178 117v137l754 326v4l-754 325v138l926 -414v-103z" />
    <glyph glyph-name="question" unicode="?" horiz-adv-x="925" 
d="M319 0v162h162v-162h-162zM332 377v92q0 165 126 289q52 51 105 99q127 115 127 241q0 100 -76 168t-192 67q-62 1 -124 -21t-93 -42l-31 -23l-78 103q50 43 145 80t185 36q178 0 294 -101t116 -261q0 -94 -38 -170t-92 -126t-108 -97q-130 -114 -129 -246v-88h-137z" />
    <glyph glyph-name="at" unicode="@" horiz-adv-x="1574" 
d="M940 778q-121 0 -202 -82t-81 -200q0 -117 81 -199t198 -82h254v563h-250zM98 498q0 315 214 532t540 217q233 -1 355 -113t122 -274v-645h144v-115h-549q-176 0 -293 116t-117 278t117 278t293 115h266q-4 100 -92 171t-250 70q-260 0 -433 -185t-173 -448t173 -445
t433 -181v-123q-317 0 -534 218q-216 219 -216 534z" />
    <glyph glyph-name="A" unicode="A" horiz-adv-x="1468" 
d="M492 610h483l-215 590l-23 92h-6q-4 -45 -20 -92zM23 0v119h147l485 1321h158l485 -1321h148v-119h-461v119h166l-137 370h-561l-136 -370h166v-119h-460z" />
    <glyph glyph-name="B" unicode="B" horiz-adv-x="1372" 
d="M442 123h344q94 1 159 27t107 96t42 180t-79 188t-206 78h-367v-569zM442 815h351q109 0 177 70t66 182q0 147 -104 213q-61 37 -172 37h-318v-502zM111 0v119h188v1202h-188v119h649q152 0 240 -44t136 -128t48 -193q0 -219 -185 -311v-4q111 -33 177 -129t66 -226
t-68 -232q-68 -101 -164 -137t-228 -36h-671z" />
    <glyph glyph-name="C" unicode="C" horiz-adv-x="1519" 
d="M111 727q0 315 210 526t519 211q164 0 331 -59q89 -31 147 -90t58 -137v-154h-137v115q0 67 -70 113q-126 84 -323 83q-252 0 -419 -171t-167 -436t169 -444t425 -180q106 0 247 41q69 19 115 61t46 95v113h137v-154q-1 -74 -57 -132t-144 -90q-167 -61 -348 -63
q-319 1 -529 219t-210 533z" />
    <glyph glyph-name="D" unicode="D" horiz-adv-x="1589" 
d="M442 123h265q365 0 519 235q95 146 95 360t-92 361t-256 205q-96 33 -266 33h-265v-1194zM111 0v119h188v1202h-188v119h608q184 0 307 -37q207 -68 326 -247q118 -179 118 -439t-122 -438t-340 -244q-109 -35 -289 -35h-608z" />
    <glyph glyph-name="E" unicode="E" horiz-adv-x="1282" 
d="M111 0v119h188v1202h-188v119h1017v-299h-131v176h-555v-531h545v-122h-545v-541h594v186h129v-309h-1054z" />
    <glyph glyph-name="F" unicode="F" horiz-adv-x="1161" 
d="M111 0v119h188v1202h-188v119h968v-307h-129v180h-508v-543h527v-123h-527v-528h201v-119h-532z" />
    <glyph glyph-name="G" unicode="G" horiz-adv-x="1570" 
d="M113 721q0 323 208 533t539 210q293 0 458 -130q85 -67 85 -152v-158h-137v109q0 94 -125 148t-279 54q-272 0 -436 -172t-164 -440t166 -443t432 -176q128 0 274 42q74 22 120 66t46 101v226h-301v118h437v-376q0 -103 -102 -177q-179 -129 -492 -129q-312 0 -520 212
t-209 534z" />
    <glyph glyph-name="H" unicode="H" horiz-adv-x="1718" 
d="M111 0v119h188v1202h-188v119h520v-119h-189v-539h834v539h-189v119h521v-119h-189v-1202h189v-119h-521v119h189v540h-834v-540h189v-119h-520z" />
    <glyph glyph-name="I" unicode="I" horiz-adv-x="741" 
d="M111 0v119h188v1202h-188v119h520v-119h-189v-1202h189v-119h-520z" />
    <glyph glyph-name="J" unicode="J" horiz-adv-x="1118" 
d="M59 393v68h142v-51q1 -131 67 -217q66 -87 184 -87t194 74t75 230v911h-219v119h530v-119h-168v-924q0 -213 -119 -317t-285 -104t-283 102q-118 102 -118 315z" />
    <glyph glyph-name="K" unicode="K" horiz-adv-x="1370" 
d="M111 0v119h188v1202h-188v119h510v-119h-179v-508h211l353 508h-142v119h447v-119h-146l-397 -559v-4q33 -16 70 -84l295 -498q35 -57 106 -57h72v-119h-109q-86 0 -123 22t-75 87l-302 518q-37 63 -114 63h-146v-571h187v-119h-518z" />
    <glyph glyph-name="L" unicode="L" horiz-adv-x="1212" 
d="M111 0v119h188v1198h-188v123h520v-123h-189v-1194h576v239h131v-362h-1038z" />
    <glyph glyph-name="M" unicode="M" horiz-adv-x="1927" 
d="M74 0v119h188l96 1202h-190v119h346l418 -942l29 -84h4q10 37 30 84l418 942h344v-119h-188l94 -1202h188v-119h-514v119h185l-78 993l4 102h-4q-16 -61 -31 -96l-383 -844h-133l-385 844l-29 96h-6l4 -102l-78 -993h185v-119h-514z" />
    <glyph glyph-name="N" unicode="N" horiz-adv-x="1705" 
d="M111 0v119h188v1202h-188v119h327l807 -1137l43 -88h4l-6 100v1006h-190v119h522v-119h-188v-1321h-140l-807 1137l-43 88h-4l6 -99v-1007h191v-119h-522z" />
    <glyph glyph-name="O" unicode="O" horiz-adv-x="1689" 
d="M260 726q0 -259 171 -439q171 -181 414 -181t413 180t172 440q0 259 -172 433t-414 174q-244 0 -414 -174t-170 -433zM111 726q0 312 213 525t520 213t521 -213t214 -525t-214 -531t-520 -219t-520 218q-214 220 -214 532z" />
    <glyph glyph-name="P" unicode="P" horiz-adv-x="1314" 
d="M1098 998q0 319 -344 319h-312v-625h312q104 0 174 29q170 70 170 277zM111 0v119h188v1202h-188v119h655q162 0 257 -45t157 -147t63 -245q0 -142 -71 -252t-174 -146t-230 -36h-326v-450h189v-119h-520z" />
    <glyph glyph-name="Q" unicode="Q" horiz-adv-x="1689" 
d="M260 726q0 -261 168 -440q168 -180 402 -180t387 136l-220 223l84 88l219 -223q134 174 134 416t-170 414q-170 173 -420 173t-417 -173t-167 -434zM826 -25q-290 -1 -503 219q-212 220 -212 532t212 525t521 213t522 -210t213 -511t-180 -510l178 -178l-86 -88l-176 178
q-199 -170 -489 -170z" />
    <glyph glyph-name="R" unicode="R" horiz-adv-x="1404" 
d="M442 733h338q131 0 211 83t80 220q0 193 -158 254q-72 27 -190 27h-281v-584zM111 0v119h188v1202h-188v119h616q158 0 256 -33q233 -84 234 -360q-1 -162 -87 -272t-233 -136v-4q27 -18 49 -60l240 -409q16 -29 38 -38t64 -9h41v-119h-78q-92 0 -126 19t-72 90l-242 413
q-29 53 -60 71q-32 17 -102 17h-207v-491h187v-119h-518z" />
    <glyph glyph-name="S" unicode="S" horiz-adv-x="1159" 
d="M121 401h137v-104q0 -88 92 -139q92 -52 229 -52t227 69q89 69 89 192q0 154 -155 234q-87 46 -247 107q-161 61 -208 101q-98 86 -121 169q-14 50 -14 112q0 180 124 277t302 97t303 -61t125 -164v-154h-138v107q0 66 -86 104t-204 37q-118 0 -198 -61q-81 -61 -81 -160
t52 -159q52 -59 173 -109q29 -12 108 -42t123 -48q45 -18 109 -56q183 -109 180 -317q0 -186 -132 -296t-322 -110t-328 76q-139 76 -139 213v137z" />
    <glyph glyph-name="T" unicode="T" horiz-adv-x="1339" 
d="M410 0v119h188v1198h-403v-234h-129v357h1208v-357h-131v234h-402v-1198h189v-119h-520z" />
    <glyph glyph-name="U" unicode="U" horiz-adv-x="1617" 
d="M256 530v791h-188v119h520v-119h-189v-789q0 -164 64 -264q104 -162 349 -162t343 168q63 109 64 263v784h-189v119h520v-119h-188v-791q0 -207 -92 -340q-70 -104 -191 -159t-271 -55t-272 56q-280 130 -280 498z" />
    <glyph glyph-name="V" unicode="V" horiz-adv-x="1443" 
d="M25 1321v119h464v-119h-165l372 -1067l23 -94h6q8 49 23 94l372 1067h-164v119h465v-119h-149l-471 -1321h-158l-471 1321h-147z" />
    <glyph glyph-name="W" unicode="W" horiz-adv-x="2048" 
d="M35 1321v119h465v-119h-172l258 -1059l14 -94h8q6 49 19 94l329 1178h134l331 -1178l19 -94h8q4 49 14 94l258 1059h-172v119h465v-119h-147l-334 -1321h-170l-318 1133l-16 94h-8q-4 -51 -16 -94l-320 -1133h-168l-336 1321h-145z" />
    <glyph glyph-name="X" unicode="X" horiz-adv-x="1320" 
d="M57 0v119h144l374 608l-372 594h-140v119h459v-119h-164l312 -504h4q7 21 31 53l268 451h-158v119h449v-119h-142l-381 -610l375 -592h144v-119h-457v119h158l-310 504h-4q-12 -27 -31 -56l-268 -448h160v-119h-451z" />
    <glyph glyph-name="Y" unicode="Y" horiz-adv-x="1318" 
d="M399 0v119h189v499l-424 703h-141v119h454v-119h-160l312 -524l28 -56h5q12 29 28 56l314 524h-160v119h452v-119h-141l-424 -703v-499h189v-119h-521z" />
    <glyph glyph-name="Z" unicode="Z" horiz-adv-x="1275" 
d="M117 0v100l790 1149l58 68v4q-39 -4 -80 -4h-629v-234h-129v357h1012v-101l-791 -1149l-57 -67v-4q39 4 80 4h657v239h129v-362h-1040z" />
    <glyph glyph-name="bracketleft" unicode="[" horiz-adv-x="608" 
d="M211 -195v1690h276v-115h-147v-1460h147v-115h-276z" />
    <glyph glyph-name="backslash" unicode="\" horiz-adv-x="837" 
d="M612 -86l-518 1606h131l518 -1606h-131z" />
    <glyph glyph-name="bracketright" unicode="]" horiz-adv-x="606" 
d="M117 -80h149v1460h-149v115h278v-1690h-278v115z" />
    <glyph glyph-name="asciicircum" unicode="^" horiz-adv-x="1241" 
d="M150 512l405 928h96l408 -928h-135l-320 758l-319 -758h-135z" />
    <glyph glyph-name="underscore" unicode="_" horiz-adv-x="1118" 
d="M31 0h1056v-119h-1056v119z" />
    <glyph glyph-name="grave" unicode="`" horiz-adv-x="1032" 
d="M553 1540l-231 244h178l200 -244h-147z" />
    <glyph glyph-name="a" unicode="a" horiz-adv-x="1118" 
d="M221 297q-1 -84 59 -145t162 -62q145 0 235 120q89 120 89 267v49h-59q-486 0 -486 -229zM78 283q0 348 620 348h68v43q0 260 -248 260q-78 0 -152 -25t-112 -49l-35 -26l-65 104q16 12 46 32t126 52q96 33 200 33q379 0 379 -387v-508q0 -45 45 -45h113v-115h-168
q-123 0 -123 113v18l6 80h-4q-34 -85 -114 -154q-36 -31 -100 -57t-138 -25q-139 0 -242 80q-102 81 -102 228z" />
    <glyph glyph-name="b" unicode="b" horiz-adv-x="1220" 
d="M656 928q-144 0 -240 -104t-97 -292q1 -188 87 -310t234 -122t245 112q96 112 96 300t-91 302q-90 114 -234 114zM184 0v1325h-184v115h324v-508l-7 -86h5l11 22q7 14 37 50q64 78 167 114q63 23 137 23q204 0 326 -150q122 -149 122 -391t-130 -390t-322 -148t-303 136
q-27 32 -39 52l-11 22h-4q6 -37 6 -86v-100h-135z" />
    <glyph glyph-name="c" unicode="c" horiz-adv-x="1126" 
d="M636 -25q-226 1 -384 149t-158 387t156 391t383 153q117 0 238 -47q63 -25 103 -71t40 -106v-112h-129v76q0 63 -82 99t-168 36q-172 0 -285 -115q-112 -115 -112 -300t116 -300t287 -115q116 0 211 51q46 22 85 56q40 34 42 35l59 -107q-176 -160 -402 -160z" />
    <glyph glyph-name="d" unicode="d" horiz-adv-x="1265" 
d="M242 515q0 -189 90 -302t233 -113t239 104t97 292q0 188 -85 310q-84 122 -234 122t-245 -112t-95 -301zM545 -25q-205 1 -326 149t-121 391t129 391t336 149q137 0 217 -64q79 -64 109 -117l10 -20h4q-6 35 -6 80v391h-184v115h323v-1280q0 -45 45 -45h115v-115h-170
q-123 0 -123 113v18l8 64h-4q-4 -7 -11 -23t-37 -54q-65 -82 -171 -119q-66 -24 -143 -24z" />
    <glyph glyph-name="e" unicode="e" horiz-adv-x="1130" 
d="M594 938q-127 0 -225 -85t-123 -237h645q-6 156 -88 239t-209 83zM635 -25q-231 -1 -385 151t-154 393t146 388t357 147q210 0 324 -135q114 -136 113 -339l-6 -66h-790q4 -194 118 -304t281 -110q84 0 162 31t114 62l37 30l64 -104q-16 -16 -47 -40t-130 -64t-204 -40z
" />
    <glyph glyph-name="f" unicode="f" horiz-adv-x="727" 
d="M94 0v115h174v800h-184v115h184v53q0 297 237 355q48 12 99 12l84 -6v-121q-27 6 -65 6q-39 0 -69 -8q-149 -39 -146 -236v-55h262v-115h-262v-800h204v-115h-518z" />
    <glyph glyph-name="g" unicode="g" horiz-adv-x="1253" 
d="M572 131q144 0 230 95q85 95 85 309q0 395 -326 395q-149 0 -233 -104t-84 -289q0 -184 92 -295t236 -111zM100 534q0 234 121 377t326 144q117 0 212 -46t134 -137h4q-4 14 -4 58q0 100 119 100h184v-115h-127q-45 0 -45 -43v-847q0 -229 -142 -342t-336 -113t-353 82
l53 112q128 -72 284 -72t255 81q99 80 100 245v103l6 74h-4q-99 -189 -317 -189t-344 148q-126 146 -126 380z" />
    <glyph glyph-name="h" unicode="h" horiz-adv-x="1347" 
d="M61 0v115h175v1210h-185v115h324v-566l-8 -83h4q41 94 149 179t278 85q170 -1 250 -101t80 -299v-540h177v-115h-316v618q0 146 -44 226q-45 80 -195 80t-263 -123t-112 -307v-379h174v-115h-488z" />
    <glyph glyph-name="i" unicode="i" horiz-adv-x="643" 
d="M94 0v115h174v800h-184v115h324v-915h174v-115h-488zM260 1266v174h158v-174h-158z" />
    <glyph glyph-name="j" unicode="j" horiz-adv-x="561" 
d="M-43 -297q18 -4 71 -4t106 34q104 66 104 232v950h-185v115h324v-1067q0 -98 -27 -171q-48 -128 -157 -176q-84 -38 -177 -38l-59 6v119zM227 1266v174h158v-174h-158z" />
    <glyph glyph-name="k" unicode="k" horiz-adv-x="1146" 
d="M61 0v115h175v1210h-185v115h324v-811h162l243 286h-147v115h442v-115h-143l-283 -327v-4q9 0 31 -26t41 -56l205 -344q16 -27 33 -35t61 -8h70v-115h-115q-76 0 -109 19t-69 83l-219 371q-29 43 -101 43h-102v-401h164v-115h-478z" />
    <glyph glyph-name="l" unicode="l" horiz-adv-x="555" 
d="M182 258v1067h-182v115h322v-1172q0 -154 116 -153l58 4v-119q-39 -6 -80 -6q-234 0 -234 264z" />
    <glyph glyph-name="m" unicode="m" horiz-adv-x="2039" 
d="M94 0v115h174v755q0 45 -45 45h-139v115h197q125 0 125 -115v-59l-9 -74h4q41 109 153 191t230 82q270 0 314 -262h4q45 109 150 185t231 77q180 -1 260 -101t80 -299v-540h174v-115h-314v621q0 145 -46 226q-45 81 -185 81t-238 -133t-98 -301v-379h174v-115h-313v621
q0 227 -101 282q-46 25 -116 25q-152 0 -252 -134t-100 -305v-374h174v-115h-488z" />
    <glyph glyph-name="n" unicode="n" horiz-adv-x="1380" 
d="M94 0v115h174v755q0 45 -45 45h-139v115h197q125 0 125 -115v-59l-9 -74h4q25 73 123 165q49 46 128 77t169 31q184 -1 263 -101t79 -299v-540h174v-115h-313v618q0 146 -45 226t-180 80q-168 0 -280 -127t-111 -301v-381h174v-115h-488z" />
    <glyph glyph-name="o" unicode="o" horiz-adv-x="1271" 
d="M636 930q-168 0 -284 -118t-116 -294t116 -297t284 -121q167 0 284 121q116 121 116 297t-116 294q-117 118 -284 118zM92 518q0 229 159 383t385 154t385 -154t159 -383t-159 -386t-385 -157t-385 157t-159 386z" />
    <glyph glyph-name="p" unicode="p" horiz-adv-x="1275" 
d="M709 928q-143 0 -239 -104t-95 -292q0 -186 88 -309t233 -123t242 112q96 112 96 300t-91 302t-234 114zM63 -295h175v1165q0 45 -45 45h-140v115h195q123 0 123 -108v-9l-6 -71h4l11 22q7 14 37 51q31 37 67 66t102 51t143 23q205 0 327 -150q122 -149 122 -391
t-130 -390t-333 -149q-132 0 -228 73q-73 59 -102 112l-10 20h-4q6 -37 6 -90v-385h174v-115h-488v115z" />
    <glyph glyph-name="q" unicode="q" horiz-adv-x="1220" 
d="M242 516q0 -188 90 -302t233 -114t239 104t97 294q0 188 -86 310q-87 122 -235 122t-243 -113t-95 -301zM98 516q0 242 129 390t334 149q121 0 206 -60q61 -39 111 -104l25 -39h4q-6 33 -6 76v102h135v-1325h174v-115h-487v115h174v389l8 90h-4l-11 -22q-7 -14 -37 -50
q-66 -79 -149 -108q-84 -29 -157 -29q-205 -1 -327 149t-122 392z" />
    <glyph glyph-name="r" unicode="r" horiz-adv-x="817" 
d="M104 0v115h160v755q0 45 -45 45h-139v115h194q125 0 125 -117v-69l-4 -78h4q41 123 126 199t200 75l57 -6v-137q-27 4 -53 4q-109 0 -185 -76q-140 -140 -141 -389v-321h160v-115h-459z" />
    <glyph glyph-name="s" unicode="s" horiz-adv-x="962" 
d="M92 219v100h127v-73q0 -72 83 -111t185 -39t172 43t70 107t-40 105t-80 59t-128 51t-141 57q-142 66 -183 149q-26 50 -26 113q1 133 107 204t240 71q134 -1 243 -53t108 -148v-119h-127v76q0 55 -62 89t-151 34t-151 -39t-64 -101q0 -62 42 -105q42 -42 113 -73t156 -61
q156 -56 221 -123q66 -68 64 -166q0 -133 -108 -212t-271 -79q-163 -1 -281 65t-118 179z" />
    <glyph glyph-name="t" unicode="t" horiz-adv-x="694" 
d="M221 375v540h-184v115h186v285h137v-285h261v-115h-261v-528q0 -169 89 -228q69 -46 145 -46l47 4v-121q-25 -4 -63 -4q-164 0 -265 98q-39 39 -65 113q-27 74 -27 172z" />
    <glyph glyph-name="u" unicode="u" horiz-adv-x="1333" 
d="M219 375v540h-184v115h323v-620q0 -135 37 -212q47 -94 202 -94t260 130t106 307v374h-185v115h324v-872q0 -45 45 -45h117v-113h-174q-123 0 -123 115v51l2 74h-4q-25 -73 -118 -160q-48 -45 -124 -75t-166 -30q-176 1 -257 99t-81 301z" />
    <glyph glyph-name="v" unicode="v" horiz-adv-x="1153" 
d="M16 915v115h426v-115h-147l258 -690l20 -80h7q6 43 20 80l258 690h-147v115h426v-115h-136l-350 -915h-149l-350 915h-136z" />
    <glyph glyph-name="w" unicode="w" horiz-adv-x="1742" 
d="M20 915v115h426v-115h-153l215 -692l16 -80h4q6 43 17 80l258 803h137l258 -803l16 -80h5q4 43 14 80l217 692h-154v115h426v-115h-133l-293 -915h-149l-254 772l-19 82h-6q-6 -45 -18 -82l-254 -772h-152l-292 915h-132z" />
    <glyph glyph-name="x" unicode="x" horiz-adv-x="1132" 
d="M59 0v115h164l264 420l-241 380h-176v115h260l207 -340l32 -59h4q14 31 33 61l211 338h250v-115h-170l-244 -380l269 -420h155v-115h-241l-267 438h-4q-12 -31 -33 -61l-229 -377h-244z" />
    <glyph glyph-name="y" unicode="y" horiz-adv-x="1175" 
d="M266 -307q125 0 197 164l57 137l-368 921h-136v115h433v-115h-150l270 -702l17 -74h6q6 35 20 74l271 702h-150v115h426v-115h-135l-438 -1105q-45 -112 -127 -176t-189 -64q-51 0 -100 15t-72 30l-22 16l53 111q59 -49 137 -49z" />
    <glyph glyph-name="z" unicode="z" horiz-adv-x="1054" 
d="M242 915v-182h-127v297h827v-100l-612 -756l-54 -57v-4q39 2 80 2h465v182h127v-297h-848v98l613 758l53 57v5q-37 -2 -78 -3h-446z" />
    <glyph glyph-name="braceleft" unicode="{" horiz-adv-x="655" 
d="M248 170v195q0 94 -44 152t-87 69l-43 12v127q18 0 54 18t60 41q59 57 60 177v167q0 96 24 168q25 72 59 108q86 91 220 91h33v-115h-21q-56 0 -101 -31q-85 -60 -85 -225v-200q0 -115 -55 -176t-93 -76l-16 -8v-5q20 -7 53 -28q108 -71 111 -232v-225q0 -167 76 -218
q55 -38 110 -38h21v-115q-12 -2 -38 -2q-130 0 -215 93q-35 36 -59 108t-24 168z" />
    <glyph glyph-name="bar" unicode="|" horiz-adv-x="538" 
d="M205 -322v1936h129v-1936h-129z" />
    <glyph glyph-name="braceright" unicode="}" horiz-adv-x="655" 
d="M70 -82h20q58 0 102 31q87 61 87 225v225q0 121 55 181q55 59 108 79v5q-21 7 -54 31q-109 81 -109 229v200q1 164 -77 218q-53 38 -112 38h-20v115h32q138 0 223 -90q35 -37 59 -109t24 -168v-167q0 -97 44 -155t87 -69l43 -12v-127q-19 0 -55 -18q-35 -18 -59 -41
t-42 -69t-18 -105v-195q0 -96 -25 -168t-59 -108q-85 -92 -222 -93l-32 2v115z" />
    <glyph glyph-name="asciitilde" unicode="~" horiz-adv-x="1232" 
d="M154 428q0 162 68 240q69 78 190 77q76 -1 134 -33t90 -73q84 -107 175 -107q92 0 124 64t32 141h118q-1 -161 -69 -239t-189 -78q-76 0 -134 34t-90 72q-89 106 -178 107t-121 -63t-32 -142h-118z" />
    <glyph glyph-name="uni00A0" unicode="&#xa0;" horiz-adv-x="555" 
 />
    <glyph glyph-name="exclamdown" unicode="&#xa1;" horiz-adv-x="458" 
d="M158 -410l6 1063h131l6 -1063h-143zM147 868v162h160v-162h-160z" />
    <glyph glyph-name="cent" unicode="&#xa2;" horiz-adv-x="1124" 
d="M526 -27v174q-206 23 -318 182t-112 391t113 391t317 181v172h115v-172q258 -29 383 -303l-131 -49q-102 221 -303 221q-170 0 -260 -123q-90 -122 -90 -318t89 -318t261 -121q203 0 303 219l131 -49q-131 -281 -383 -304v-174h-115z" />
    <glyph glyph-name="sterling" unicode="&#xa3;" horiz-adv-x="1245" 
d="M92 0v121h180v547h-135v112h135v305q0 162 120 271t304 108q86 0 166 -28t117 -58l37 -28l-84 -103q-102 86 -234 86q-132 1 -208 -73q-75 -74 -74 -183v-297h389v-112h-389v-545h600v239h131v-362h-1055z" />
    <glyph glyph-name="yen" unicode="&#xa5;" horiz-adv-x="1277" 
d="M236 432v105h333v79l-57 101h-276v104h217l-359 619h162l293 -512l88 -183h4q45 100 88 183l295 512h162l-361 -619h215v-104h-272l-55 -101v-79h327v-105h-327v-432h-144v432h-333z" />
    <glyph glyph-name="section" unicode="&#xa7;" horiz-adv-x="825" 
d="M344 -4q96 0 160 60q63 60 63 163q0 43 -6 66l-135 878h123l139 -889q8 -35 8 -71q0 -143 -98 -237t-256 -93q-60 0 -120 22t-87 44l-29 20l70 98q72 -61 168 -61zM131 1135q0 143 98 236t256 93q63 0 123 -22t88 -41l27 -23l-74 -96q-70 59 -166 59q-97 0 -161 -58
t-64 -161q0 -20 8 -61l135 -887h-120l-142 889q-8 49 -8 72z" />
    <glyph glyph-name="dieresis" unicode="&#xa8;" horiz-adv-x="1032" 
d="M258 1608v176h141v-176h-141zM633 1608v176h141v-176h-141z" />
    <glyph glyph-name="copyright" unicode="&#xa9;" horiz-adv-x="1658" 
d="M424 718q0 171 115 296t307 125q126 0 210 -63t111 -109l13 -19l-95 -63q-39 59 -76 85q-82 56 -159 56q-141 0 -223 -90t-82 -217t81 -217t224 -90q90 0 151 51t84 90l95 -64q-8 -16 -47 -57q-125 -133 -303 -133t-292 124t-114 295zM223 720q0 -266 174 -450t431 -184
t435 183q177 183 177 451t-177 450q-177 184 -435 184t-431 -184q-174 -184 -174 -450zM828 1464q302 0 516 -217t215 -528q0 -311 -213 -527q-214 -216 -518 -217t-515 217t-211 528t212 527t514 217z" />
    <glyph glyph-name="ordfeminine" unicode="&#xaa;" horiz-adv-x="878" 
d="M168 541v96h539v-96h-539zM422 881q68 1 117 67t49 148v18h-27q-274 0 -274 -127q0 -45 32 -76q35 -30 103 -30zM455 1460q245 0 245 -252v-413h-108v100h-4q-6 -13 -20 -31t-64 -50t-124 -32t-142 52t-68 143q0 227 393 227h25v8q0 152 -144 152q-41 0 -85 -14t-66 -31
l-23 -14l-51 79q88 76 236 76z" />
    <glyph glyph-name="guillemotleft" unicode="&#xab;" horiz-adv-x="1079" 
d="M436 158l-336 420l336 421h152l-336 -421l336 -420h-152zM469 578l336 421h151l-335 -421l335 -420h-151z" />
    <glyph glyph-name="logicalnot" unicode="&#xac;" horiz-adv-x="1220" 
d="M119 700v119h954v-495h-123v376h-831z" />
    <glyph glyph-name="uni00AD" unicode="&#xad;" horiz-adv-x="1005" 
d="M213 518v127h580v-127h-580z" />
    <glyph glyph-name="registered" unicode="&#xae;" horiz-adv-x="1658" 
d="M698 735h150q66 0 104 39t37 108q0 70 -38 106t-103 36h-150v-289zM584 322v798h284q106 0 173 -66t67 -160q0 -96 -44 -152t-106 -70v-4q8 -10 27 -45l154 -301h-127l-160 323h-154v-323h-114zM223 720q0 -266 174 -450t431 -184t435 183q177 183 177 451t-177 450
q-177 184 -435 184t-431 -184q-174 -184 -174 -450zM828 1464q302 0 516 -217t215 -528q0 -311 -213 -527q-214 -216 -518 -217t-515 217t-211 528t212 527t514 217z" />
    <glyph glyph-name="macron" unicode="&#xaf;" horiz-adv-x="1032" 
d="M264 1608v112h504v-112h-504z" />
    <glyph glyph-name="degree" unicode="&#xb0;" horiz-adv-x="776" 
d="M387 1008q70 0 118 49t48 120t-48 121t-118 50t-118 -50t-48 -122q0 -70 48 -119t118 -49zM388 893q-120 0 -204 83t-84 201q0 117 84 201t203 84t204 -84t85 -202t-84 -200q-84 -83 -204 -83z" />
    <glyph glyph-name="plusminus" unicode="&#xb1;" horiz-adv-x="1241" 
d="M123 -213h995v-119h-995v119zM86 522v119h473v522h125v-522h471v-119h-471v-522h-125v522h-473z" />
    <glyph glyph-name="twosuperior" unicode="&#xb2;" horiz-adv-x="856" 
d="M133 940q0 88 46 159t112 118q67 47 131 89q155 101 156 210q0 66 -48 112t-107 45q-61 1 -107 -25t-66 -51l-23 -24l-73 72q10 15 30 37t89 59t145 37q127 0 202 -73q74 -73 74 -170q-1 -169 -154 -272q-66 -44 -130 -84q-157 -97 -160 -214h360v112h101v-211h-572
q-6 45 -6 74z" />
    <glyph glyph-name="threesuperior" unicode="&#xb3;" horiz-adv-x="815" 
d="M145 1548v209h549v-74l-248 -288q102 -10 180 -75q78 -64 79 -184q-1 -120 -89 -205t-217 -85q-89 0 -161 34t-101 66l-28 35l71 76q8 -11 24 -29t72 -48q57 -30 127 -30t128 52q59 52 59 130t-60 126q-60 46 -141 47h-65l-29 63l215 254l43 41v4q-25 -6 -57 -6h-248
v-113h-103z" />
    <glyph glyph-name="acute" unicode="&#xb4;" horiz-adv-x="1032" 
d="M332 1540l200 244h179l-232 -244h-147z" />
    <glyph glyph-name="mu" unicode="&#xb5;" horiz-adv-x="1193" 
d="M156 -410v1440h139v-618q0 -146 45 -226t180 -80q168 0 274 128q105 128 105 303v493h139v-1030h-135v156l4 80h-4q-13 -33 -52 -85q-38 -51 -79 -85t-114 -63q-72 -28 -152 -28t-137 22t-76 44l-19 20h-4q14 -104 15 -155v-316h-129z" />
    <glyph glyph-name="mu" unicode="&#x3bc;" horiz-adv-x="1193" 
d="M156 -410v1440h139v-618q0 -146 45 -226t180 -80q168 0 274 128q105 128 105 303v493h139v-1030h-135v156l4 80h-4q-13 -33 -52 -85q-38 -51 -79 -85t-114 -63q-72 -28 -152 -28t-137 22t-76 44l-19 20h-4q14 -104 15 -155v-316h-129z" />
    <glyph glyph-name="paragraph" unicode="&#xb6;" horiz-adv-x="1169" 
d="M815 -102v1292h117v-1292h-117zM569 -102v596q-201 0 -344 138t-143 337t142 335t343 136h492v-127h-371v-1415h-119z" />
    <glyph glyph-name="periodcentered" unicode="&#xb7;" horiz-adv-x="565" 
d="M201 506v170h164v-170h-164z" />
    <glyph glyph-name="cedilla" unicode="&#xb8;" horiz-adv-x="1032" 
d="M670 -278q0 -72 -60 -112t-147 -40l-101 10v92q39 -10 89 -10q104 0 104 73t-121 72h-31l58 240l88 -14v-17l-29 -135q62 -6 106 -47q44 -40 44 -112z" />
    <glyph glyph-name="onesuperior" unicode="&#xb9;" horiz-adv-x="815" 
d="M139 866v99h213v579l6 64h-4q-10 -16 -32 -39l-113 -109l-74 76l225 221h107v-792h209v-99h-537z" />
    <glyph glyph-name="ordmasculine" unicode="&#xba;" horiz-adv-x="972" 
d="M178 541v96h621v-96h-621zM485 889q96 -1 163 67t67 169t-67 168t-163 67q-97 0 -163 -67t-66 -168t66 -169t163 -67zM485 784q-143 0 -242 98t-99 242q0 142 100 240t241 98t241 -97t101 -241t-99 -242t-243 -98z" />
    <glyph glyph-name="guillemotright" unicode="&#xbb;" horiz-adv-x="1079" 
d="M123 158l336 420l-336 421h151l336 -421l-336 -420h-151zM492 158l335 420l-335 421h151l336 -421l-336 -420h-151z" />
    <glyph glyph-name="onequarter" unicode="&#xbc;" horiz-adv-x="1916" 
d="M121 549v98h213v580l6 63h-4q-10 -16 -33 -39l-113 -108l-73 76l225 221h107v-793h208v-98h-536zM541 0l688 1440h119l-686 -1440h-121zM1290 332h301v330l8 88h-6q-18 -41 -43 -74l-260 -340v-4zM1591 0v236h-432v75l434 580h111v-559h133v-96h-133v-236h-113z" />
    <glyph glyph-name="onehalf" unicode="&#xbd;" horiz-adv-x="1875" 
d="M106 549v98h213v580l7 63h-4q-10 -16 -33 -39l-113 -108l-74 76l226 221h106v-793h209v-98h-537zM526 0l688 1440h119l-686 -1440h-121zM1200 74q0 88 46 158t111 118q65 47 131 89q156 100 157 210q1 66 -47 112t-108 46t-106 -25t-69 -49l-21 -26l-73 71q10 14 30 37
t89 59t145 37q127 -1 202 -73t75 -170q-1 -167 -155 -272q-65 -44 -129 -84q-157 -97 -161 -214h360v113h101v-211h-572q-6 45 -6 74z" />
    <glyph glyph-name="threequarters" unicode="&#xbe;" horiz-adv-x="1953" 
d="M571 0l689 1440h118l-686 -1440h-121zM141 1231v209h549v-74l-248 -289q102 -10 180 -75q78 -64 78 -184t-88 -205t-217 -85q-88 0 -161 34t-101 69l-29 33l72 75q8 -12 24 -29t72 -47q57 -30 127 -30t128 52t59 130q0 78 -60 125t-141 47h-66l-28 64l215 254l43 41v4
q-25 -6 -57 -7h-248v-112h-103zM1321 332h301v330l8 88h-6q-18 -41 -43 -74l-260 -340v-4zM1622 0v236h-432v75l434 580h111v-559h133v-96h-133v-236h-113z" />
    <glyph glyph-name="questiondown" unicode="&#xbf;" horiz-adv-x="929" 
d="M475 571v82h137v-88q0 -90 -37 -164q-37 -73 -89 -123t-105 -98q-127 -116 -127 -229q0 -112 76 -180t194 -68q60 0 122 22t93 42l31 22l78 -102q-14 -11 -41 -31t-113 -53t-176 -33q-178 0 -294 101q-115 101 -115 268t129 288q53 51 107 99q130 114 130 245zM463 868
v162h162v-162h-162z" />
    <glyph glyph-name="Agrave" unicode="&#xc0;" horiz-adv-x="1468" 
d="M682 1540l-231 244h178l200 -244h-147zM492 610h483l-215 590l-23 92h-6q-4 -45 -20 -92zM23 0v119h147l485 1321h158l485 -1321h148v-119h-461v119h166l-137 370h-561l-136 -370h166v-119h-460z" />
    <glyph glyph-name="Aacute" unicode="&#xc1;" horiz-adv-x="1468" 
d="M635 1540l201 244h178l-232 -244h-147zM492 610h483l-215 590l-23 92h-6q-4 -45 -20 -92zM23 0v119h147l485 1321h158l485 -1321h148v-119h-461v119h166l-137 370h-561l-136 -370h166v-119h-460z" />
    <glyph glyph-name="Acircumflex" unicode="&#xc2;" horiz-adv-x="1468" 
d="M477 1540l172 244h168l170 -244h-141l-111 166h-4l-110 -166h-144zM492 610h483l-215 590l-23 92h-6q-4 -45 -20 -92zM23 0v119h147l485 1321h158l485 -1321h148v-119h-461v119h166l-137 370h-561l-136 -370h166v-119h-460z" />
    <glyph glyph-name="Atilde" unicode="&#xc3;" horiz-adv-x="1468" 
d="M410 1546q0 240 190 240q62 0 110 -36t82 -72t68 -36q84 0 84 138h117q0 -240 -191 -240q-51 0 -91 23q-39 23 -61 49q-60 71 -108 69q-82 0 -82 -135h-118zM492 610h483l-215 590l-23 92h-6q-4 -45 -20 -92zM23 0v119h147l485 1321h158l485 -1321h148v-119h-461v119h166
l-137 370h-561l-136 -370h166v-119h-460z" />
    <glyph glyph-name="Adieresis" unicode="&#xc4;" horiz-adv-x="1468" 
d="M477 1608v176h141v-176h-141zM852 1608v176h141v-176h-141zM492 610h483l-215 590l-23 92h-6q-4 -45 -20 -92zM23 0v119h147l485 1321h158l485 -1321h148v-119h-461v119h166l-137 370h-561l-136 -370h166v-119h-460z" />
    <glyph glyph-name="Aring" unicode="&#xc5;" horiz-adv-x="1468" 
d="M662 1664q0 -34 19 -54t53 -21q34 1 56 21t22 55t-22 57t-56 21q-34 0 -53 -22q-19 -23 -19 -57zM734 1507q-71 0 -120 44t-49 114t49 115t121 45t122 -45t50 -115t-51 -114t-122 -44zM492 610h483l-215 590l-23 92h-6q-4 -45 -20 -92zM23 0v119h147l485 1321h158
l485 -1321h148v-119h-461v119h166l-137 370h-561l-136 -370h166v-119h-460z" />
    <glyph glyph-name="AE" unicode="&#xc6;" horiz-adv-x="1888" 
d="M909 784v533h-114l-217 -533h331zM23 0v119h135l495 1202h-164v119h1246v-299h-125v176h-557v-531h540v-122h-540v-541h594v178h127v-301h-1045v119h180v547h-379l-225 -547h162v-119h-444z" />
    <glyph glyph-name="Ccedilla" unicode="&#xc7;" horiz-adv-x="1519" 
d="M111 736q0 306 210 517t519 211q164 0 331 -59q89 -31 147 -90t58 -137v-154h-137v115q0 67 -70 113q-126 84 -323 83q-252 0 -419 -171t-167 -436t169 -444t425 -180q106 0 247 41q69 19 115 61t46 95v113h137v-154q0 -94 -94 -162q-163 -118 -437 -123l-20 -94
q66 -6 108 -47q42 -40 43 -112q0 -72 -59 -112t-147 -40l-101 10v92q39 -10 88 -10q104 0 105 72q0 74 -121 73h-31l41 173q-291 26 -477 238t-186 518z" />
    <glyph glyph-name="Egrave" unicode="&#xc8;" horiz-adv-x="1282" 
d="M606 1540l-231 244h178l201 -244h-148zM111 0v119h188v1202h-188v119h1017v-299h-131v176h-555v-531h545v-122h-545v-541h594v186h129v-309h-1054z" />
    <glyph glyph-name="Eacute" unicode="&#xc9;" horiz-adv-x="1282" 
d="M111 0v119h188v1202h-188v119h1017v-299h-131v176h-555v-531h545v-122h-545v-541h594v186h129v-309h-1054zM557 1540l201 244h178l-231 -244h-148z" />
    <glyph glyph-name="Ecircumflex" unicode="&#xca;" horiz-adv-x="1282" 
d="M111 0v119h188v1202h-188v119h1017v-299h-131v176h-555v-531h545v-122h-545v-541h594v186h129v-309h-1054zM399 1540l172 244h168l170 -244h-141l-111 166h-4l-110 -166h-144z" />
    <glyph glyph-name="Edieresis" unicode="&#xcb;" horiz-adv-x="1282" 
d="M111 0v119h188v1202h-188v119h1017v-299h-131v176h-555v-531h545v-122h-545v-541h594v186h129v-309h-1054zM399 1608v176h142v-176h-142zM774 1608v176h141v-176h-141z" />
    <glyph glyph-name="Igrave" unicode="&#xcc;" horiz-adv-x="741" 
d="M322 1540l-232 244h178l201 -244h-147zM111 0v119h188v1202h-188v119h520v-119h-189v-1202h189v-119h-520z" />
    <glyph glyph-name="Iacute" unicode="&#xcd;" horiz-adv-x="741" 
d="M272 1540l201 244h178l-231 -244h-148zM111 0v119h188v1202h-188v119h520v-119h-189v-1202h189v-119h-520z" />
    <glyph glyph-name="Icircumflex" unicode="&#xce;" horiz-adv-x="741" 
d="M115 1540l172 244h168l170 -244h-142l-110 166h-4l-111 -166h-143zM111 0v119h188v1202h-188v119h520v-119h-189v-1202h189v-119h-520z" />
    <glyph glyph-name="Idieresis" unicode="&#xcf;" horiz-adv-x="741" 
d="M115 1608v176h141v-176h-141zM489 1608v176h142v-176h-142zM111 0v119h188v1202h-188v119h520v-119h-189v-1202h189v-119h-520z" />
    <glyph glyph-name="Eth" unicode="&#xd0;" horiz-adv-x="1607" 
d="M442 123h310q270 0 429 156q159 155 159 441t-160 442t-428 155h-310v-533h349v-122h-349v-539zM111 0v119h188v543h-160v122h160v537h-188v119h655q328 0 526 -192t197 -529q0 -339 -197 -529t-526 -190h-655z" />
    <glyph glyph-name="Ntilde" unicode="&#xd1;" horiz-adv-x="1705" 
d="M539 1546q0 240 190 240q63 0 111 -36t81 -72q34 -36 68 -36q84 0 84 138h117q0 -240 -191 -240q-51 0 -91 23t-62 49q-60 71 -107 69q-82 0 -82 -135h-118zM111 0v119h188v1202h-188v119h327l807 -1137l43 -88h4l-6 100v1006h-190v119h522v-119h-188v-1321h-140
l-807 1137l-43 88h-4l6 -99v-1007h191v-119h-522z" />
    <glyph glyph-name="Ograve" unicode="&#xd2;" horiz-adv-x="1689" 
d="M795 1540l-232 244h178l201 -244h-147zM260 726q0 -259 171 -439q171 -181 414 -181t413 180t172 440q0 259 -172 433t-414 174q-244 0 -414 -174t-170 -433zM111 726q0 312 213 525t520 213t521 -213t214 -525t-214 -531t-520 -219t-520 218q-214 220 -214 532z" />
    <glyph glyph-name="Oacute" unicode="&#xd3;" horiz-adv-x="1689" 
d="M260 726q0 -259 171 -439q171 -181 414 -181t413 180t172 440q0 259 -172 433t-414 174q-244 0 -414 -174t-170 -433zM111 726q0 312 213 525t520 213t521 -213t214 -525t-214 -531t-520 -219t-520 218q-214 220 -214 532zM745 1540l201 244h178l-231 -244h-148z" />
    <glyph glyph-name="Ocircumflex" unicode="&#xd4;" horiz-adv-x="1689" 
d="M260 726q0 -259 171 -439q171 -181 414 -181t413 180t172 440q0 259 -172 433t-414 174q-244 0 -414 -174t-170 -433zM111 726q0 312 213 525t520 213t521 -213t214 -525t-214 -531t-520 -219t-520 218q-214 220 -214 532zM590 1540l172 244h168l170 -244h-142l-110 166
h-4l-111 -166h-143z" />
    <glyph glyph-name="Otilde" unicode="&#xd5;" horiz-adv-x="1689" 
d="M520 1546q0 240 191 240q63 0 110 -36t81 -72t69 -36q84 0 84 138h116q0 -240 -190 -240q-91 0 -152 71q-62 71 -108 70q-82 0 -82 -135h-119zM260 726q0 -259 171 -439q171 -181 414 -181t413 180t172 440q0 259 -172 433t-414 174q-244 0 -414 -174t-170 -433zM111 726
q0 312 213 525t520 213t521 -213t214 -525t-214 -531t-520 -219t-520 218q-214 220 -214 532z" />
    <glyph glyph-name="Odieresis" unicode="&#xd6;" horiz-adv-x="1689" 
d="M260 726q0 -259 171 -439q171 -181 414 -181t413 180t172 440q0 259 -172 433t-414 174q-244 0 -414 -174t-170 -433zM111 726q0 312 213 525t520 213t521 -213t214 -525t-214 -531t-520 -219t-520 218q-214 220 -214 532zM588 1608v176h141v-176h-141zM963 1608v176h141
v-176h-141z" />
    <glyph glyph-name="multiply" unicode="&#xd7;" horiz-adv-x="1241" 
d="M98 84l441 498l-441 497l84 84l439 -493l438 493l84 -84l-445 -497l445 -498l-84 -84l-438 494l-439 -494z" />
    <glyph glyph-name="Oslash" unicode="&#xd8;" horiz-adv-x="1687" 
d="M844 109q246 0 416 179t170 448t-197 446l-703 -981q139 -92 314 -92zM844 1331q-244 0 -415 -174q-171 -173 -171 -441t195 -448l698 975q-139 88 -307 88zM844 1464q209 0 387 -110l96 137l86 -61l-98 -136q123 -102 193 -248t69 -317q0 -315 -214 -534t-519 -220
q-215 0 -391 115l-101 -139l-86 59l103 142q-121 104 -190 254t-68 323q0 309 213 522t520 213z" />
    <glyph glyph-name="Ugrave" unicode="&#xd9;" horiz-adv-x="1617" 
d="M758 1540l-232 244h179l200 -244h-147zM256 530v791h-188v119h520v-119h-189v-789q0 -164 64 -264q104 -162 349 -162t343 168q63 109 64 263v784h-189v119h520v-119h-188v-791q0 -207 -92 -340q-70 -104 -191 -159t-271 -55t-272 56q-280 130 -280 498z" />
    <glyph glyph-name="Uacute" unicode="&#xda;" horiz-adv-x="1617" 
d="M256 530v791h-188v119h520v-119h-189v-789q0 -164 64 -264q104 -162 349 -162t343 168q63 109 64 263v784h-189v119h520v-119h-188v-791q0 -207 -92 -340q-70 -104 -191 -159t-271 -55t-272 56q-280 130 -280 498zM709 1540l200 244h178l-231 -244h-147z" />
    <glyph glyph-name="Ucircumflex" unicode="&#xdb;" horiz-adv-x="1617" 
d="M256 530v791h-188v119h520v-119h-189v-789q0 -164 64 -264q104 -162 349 -162t343 168q63 109 64 263v784h-189v119h520v-119h-188v-791q0 -207 -92 -340q-70 -104 -191 -159t-271 -55t-272 56q-280 130 -280 498zM553 1540l172 244h168l170 -244h-141l-111 166h-4
l-111 -166h-143z" />
    <glyph glyph-name="Udieresis" unicode="&#xdc;" horiz-adv-x="1617" 
d="M256 530v791h-188v119h520v-119h-189v-789q0 -164 64 -264q104 -162 349 -162t343 168q63 109 64 263v784h-189v119h520v-119h-188v-791q0 -207 -92 -340q-70 -104 -191 -159t-271 -55t-272 56q-280 130 -280 498zM551 1608v176h141v-176h-141zM926 1608v176h141v-176
h-141z" />
    <glyph glyph-name="Yacute" unicode="&#xdd;" horiz-adv-x="1318" 
d="M563 1540l201 244h178l-231 -244h-148zM399 0v119h189v499l-424 703h-141v119h454v-119h-160l312 -524l28 -56h5q12 29 28 56l314 524h-160v119h452v-119h-141l-424 -703v-499h189v-119h-521z" />
    <glyph glyph-name="Thorn" unicode="&#xde;" horiz-adv-x="1316" 
d="M442 455h340q145 0 230 76q84 77 84 215t-83 215q-83 76 -229 75h-342v-581zM111 0v119h188v1202h-188v119h520v-119h-189v-166h363q197 1 317 -109t121 -297q0 -187 -122 -300t-318 -113h-361v-217h189v-119h-520z" />
    <glyph glyph-name="germandbls" unicode="&#xdf;" horiz-adv-x="1239" 
d="M61 0v115h175v972q0 174 122 276q123 101 286 101t262 -90t100 -215q0 -72 -36 -134t-78 -99q-114 -100 -114 -168q0 -67 142 -157q59 -38 118 -81q58 -43 100 -106t42 -135q0 -139 -98 -217t-234 -76q-86 0 -162 16t-108 33l-33 16v133q121 -74 293 -73q86 0 142 43
q56 44 56 118t-62 134t-138 102q-76 41 -139 106q-62 66 -62 132t36 120q36 55 78 92q41 36 77 90t36 118t-58 118q-58 55 -162 55q-104 -1 -186 -71q-81 -70 -81 -191v-1077h-314z" />
    <glyph glyph-name="agrave" unicode="&#xe0;" horiz-adv-x="1118" 
d="M479 1196l-231 244h178l201 -244h-148zM221 297q-1 -84 59 -145t162 -62q145 0 235 120q89 120 89 267v49h-59q-486 0 -486 -229zM78 283q0 348 620 348h68v43q0 260 -248 260q-78 0 -152 -25t-112 -49l-35 -26l-65 104q16 12 46 32t126 52q96 33 200 33q379 0 379 -387
v-508q0 -45 45 -45h113v-115h-168q-123 0 -123 113v18l6 80h-4q-34 -85 -114 -154q-36 -31 -100 -57t-138 -25q-139 0 -242 80q-102 81 -102 228z" />
    <glyph glyph-name="aacute" unicode="&#xe1;" horiz-adv-x="1118" 
d="M430 1196l201 244h178l-231 -244h-148zM221 297q-1 -84 59 -145t162 -62q145 0 235 120q89 120 89 267v49h-59q-486 0 -486 -229zM78 283q0 348 620 348h68v43q0 260 -248 260q-78 0 -152 -25t-112 -49l-35 -26l-65 104q16 12 46 32t126 52q96 33 200 33q379 0 379 -387
v-508q0 -45 45 -45h113v-115h-168q-123 0 -123 113v18l6 80h-4q-34 -85 -114 -154q-36 -31 -100 -57t-138 -25q-139 0 -242 80q-102 81 -102 228z" />
    <glyph glyph-name="acircumflex" unicode="&#xe2;" horiz-adv-x="1118" 
d="M272 1196l172 244h168l170 -244h-141l-111 166h-4l-110 -166h-144zM221 297q-1 -84 59 -145t162 -62q145 0 235 120q89 120 89 267v49h-59q-486 0 -486 -229zM78 283q0 348 620 348h68v43q0 260 -248 260q-78 0 -152 -25t-112 -49l-35 -26l-65 104q16 12 46 32t126 52
q96 33 200 33q379 0 379 -387v-508q0 -45 45 -45h113v-115h-168q-123 0 -123 113v18l6 80h-4q-34 -85 -114 -154q-36 -31 -100 -57t-138 -25q-139 0 -242 80q-102 81 -102 228z" />
    <glyph glyph-name="atilde" unicode="&#xe3;" horiz-adv-x="1118" 
d="M203 1202q0 240 190 240q63 0 111 -36t81 -72q34 -36 68 -36q84 0 84 138h117q0 -240 -190 -240q-52 0 -92 23t-62 49q-60 71 -107 69q-82 0 -81 -135h-119zM221 297q-1 -84 59 -145t162 -62q145 0 235 120q89 120 89 267v49h-59q-486 0 -486 -229zM78 283q0 348 620 348
h68v43q0 260 -248 260q-78 0 -152 -25t-112 -49l-35 -26l-65 104q16 12 46 32t126 52q96 33 200 33q379 0 379 -387v-508q0 -45 45 -45h113v-115h-168q-123 0 -123 113v18l6 80h-4q-34 -85 -114 -154q-36 -31 -100 -57t-138 -25q-139 0 -242 80q-102 81 -102 228z" />
    <glyph glyph-name="adieresis" unicode="&#xe4;" horiz-adv-x="1118" 
d="M270 1264v176h142v-176h-142zM645 1264v176h141v-176h-141zM221 297q-1 -84 59 -145t162 -62q145 0 235 120q89 120 89 267v49h-59q-486 0 -486 -229zM78 283q0 348 620 348h68v43q0 260 -248 260q-78 0 -152 -25t-112 -49l-35 -26l-65 104q16 12 46 32t126 52
q96 33 200 33q379 0 379 -387v-508q0 -45 45 -45h113v-115h-168q-123 0 -123 113v18l6 80h-4q-34 -85 -114 -154q-36 -31 -100 -57t-138 -25q-139 0 -242 80q-102 81 -102 228z" />
    <glyph glyph-name="aring" unicode="&#xe5;" horiz-adv-x="1118" 
d="M457 1320q0 -34 19 -54t53 -21q34 1 56 21q21 20 21 55t-22 57t-55 21q-34 0 -53 -22q-19 -23 -19 -57zM529 1163q-71 0 -119 44t-50 114q0 70 50 115t120 45q72 0 122 -45t50 -115t-51 -114t-122 -44zM221 297q-1 -84 59 -145t162 -62q145 0 235 120q89 120 89 267v49
h-59q-486 0 -486 -229zM78 283q0 348 620 348h68v43q0 260 -248 260q-78 0 -152 -25t-112 -49l-35 -26l-65 104q16 12 46 32t126 52q96 33 200 33q379 0 379 -387v-508q0 -45 45 -45h113v-115h-168q-123 0 -123 113v18l6 80h-4q-34 -85 -114 -154q-36 -31 -100 -57t-138 -25
q-139 0 -242 80q-102 81 -102 228z" />
    <glyph glyph-name="ae" unicode="&#xe6;" horiz-adv-x="1777" 
d="M221 285q-1 -78 61 -135t169 -58q141 0 229 120t88 265v41h-121q-157 0 -275 -35q-151 -43 -151 -198zM1241 936q-125 0 -215 -80t-115 -233h627q-6 153 -89 233t-208 80zM80 281q0 196 170 273q146 69 446 69h70v41q0 270 -260 270q-76 0 -149 -25t-107 -49l-37 -26
l-63 104q49 42 156 80q107 37 210 37q274 0 346 -213h4q123 213 387 213q201 0 315 -134t113 -335l-4 -66h-774q2 -202 110 -312t273 -110q84 0 162 31t113 64l36 30l66 -104q-16 -16 -48 -40t-131 -64t-204 -40q-158 0 -276 76t-177 211h-4q-15 -57 -56 -113
q-42 -55 -82 -89q-41 -34 -107 -60t-144 -25q-150 -1 -252 81t-102 225z" />
    <glyph glyph-name="ccedilla" unicode="&#xe7;" horiz-adv-x="1126" 
d="M94 522q0 228 156 380t383 153q117 0 238 -47q63 -25 103 -71t40 -106v-112h-129v76q0 63 -82 99t-168 36q-172 0 -285 -115q-112 -115 -112 -300t116 -300t287 -115q116 0 211 51q46 22 85 56q40 34 42 35l59 -107q-168 -152 -383 -160l-20 -94q63 -6 106 -47
q43 -40 43 -112t-59 -112t-145 -40l-101 10v92q37 -10 86 -10q104 0 105 72q0 74 -121 73h-29l41 175q-201 25 -334 168q-133 144 -133 372z" />
    <glyph glyph-name="egrave" unicode="&#xe8;" horiz-adv-x="1130" 
d="M555 1196l-231 244h178l200 -244h-147zM594 938q-127 0 -225 -85t-123 -237h645q-6 156 -88 239t-209 83zM635 -25q-231 -1 -385 151t-154 393t146 388t357 147q210 0 324 -135q114 -136 113 -339l-6 -66h-790q4 -194 118 -304t281 -110q84 0 162 31t114 62l37 30
l64 -104q-16 -16 -47 -40t-130 -64t-204 -40z" />
    <glyph glyph-name="eacute" unicode="&#xe9;" horiz-adv-x="1130" 
d="M594 938q-127 0 -225 -85t-123 -237h645q-6 156 -88 239t-209 83zM635 -25q-231 -1 -385 151t-154 393t146 388t357 147q210 0 324 -135q114 -136 113 -339l-6 -66h-790q4 -194 118 -304t281 -110q84 0 162 31t114 62l37 30l64 -104q-16 -16 -47 -40t-130 -64t-204 -40z
M506 1196l201 244h178l-232 -244h-147z" />
    <glyph glyph-name="ecircumflex" unicode="&#xea;" horiz-adv-x="1130" 
d="M594 938q-127 0 -225 -85t-123 -237h645q-6 156 -88 239t-209 83zM635 -25q-231 -1 -385 151t-154 393t146 388t357 147q210 0 324 -135q114 -136 113 -339l-6 -66h-790q4 -194 118 -304t281 -110q84 0 162 31t114 62l37 30l64 -104q-16 -16 -47 -40t-130 -64t-204 -40z
M350 1196l172 244h168l170 -244h-141l-111 166h-4l-110 -166h-144z" />
    <glyph glyph-name="edieresis" unicode="&#xeb;" horiz-adv-x="1130" 
d="M594 938q-127 0 -225 -85t-123 -237h645q-6 156 -88 239t-209 83zM635 -25q-231 -1 -385 151t-154 393t146 388t357 147q210 0 324 -135q114 -136 113 -339l-6 -66h-790q4 -194 118 -304t281 -110q84 0 162 31t114 62l37 30l64 -104q-16 -16 -47 -40t-130 -64t-204 -40z
M348 1264v176h141v-176h-141zM723 1264v176h141v-176h-141z" />
    <glyph glyph-name="igrave" unicode="&#xec;" horiz-adv-x="622" 
d="M272 1196l-231 244h178l201 -244h-148zM96 0v115h158v800h-160v115h299v-915h158v-115h-455z" />
    <glyph glyph-name="iacute" unicode="&#xed;" horiz-adv-x="622" 
d="M96 0v115h158v800h-160v115h299v-915h158v-115h-455zM223 1196l201 244h178l-231 -244h-148z" />
    <glyph glyph-name="icircumflex" unicode="&#xee;" horiz-adv-x="622" 
d="M96 0v115h158v800h-160v115h299v-915h158v-115h-455zM68 1196l172 244h168l170 -244h-142l-110 166h-4l-111 -166h-143z" />
    <glyph glyph-name="idieresis" unicode="&#xef;" horiz-adv-x="622" 
d="M82 1264v176h141v-176h-141zM406 1264v176h141v-176h-141zM96 0v115h158v800h-160v115h299v-915h158v-115h-455z" />
    <glyph glyph-name="eth" unicode="&#xf0;" horiz-adv-x="1202" 
d="M936 514q0 150 -93 238q-93 86 -255 86t-254 -108t-92 -258q0 -152 90 -262t254 -110t257 132t93 282zM98 473q0 199 130 341t360 142q88 0 162 -28t102 -56l31 -26h4q-68 197 -256 328l-359 -162l-28 90l282 129q-133 70 -295 108l39 119q240 -59 410 -162l262 121
l27 -90l-201 -92q309 -248 309 -676q0 -221 -118 -393q-58 -86 -158 -138t-230 -53q-217 -1 -345 149t-128 349z" />
    <glyph glyph-name="ntilde" unicode="&#xf1;" horiz-adv-x="1380" 
d="M412 1202q0 240 190 240q62 0 110 -36t82 -72t68 -36q84 0 84 138h117q0 -240 -191 -240q-51 0 -91 23q-39 23 -61 49q-60 71 -108 69q-82 0 -82 -135h-118zM94 0v115h174v755q0 45 -45 45h-139v115h197q125 0 125 -115v-59l-9 -74h4q25 73 123 165q49 46 128 77t169 31
q184 -1 263 -101t79 -299v-540h174v-115h-313v618q0 146 -45 226t-180 80q-168 0 -280 -127t-111 -301v-381h174v-115h-488z" />
    <glyph glyph-name="ograve" unicode="&#xf2;" horiz-adv-x="1271" 
d="M586 1196l-232 244h178l201 -244h-147zM636 930q-168 0 -284 -118t-116 -294t116 -297t284 -121q167 0 284 121q116 121 116 297t-116 294q-117 118 -284 118zM92 518q0 229 159 383t385 154t385 -154t159 -383t-159 -386t-385 -157t-385 157t-159 386z" />
    <glyph glyph-name="oacute" unicode="&#xf3;" horiz-adv-x="1271" 
d="M636 930q-168 0 -284 -118t-116 -294t116 -297t284 -121q167 0 284 121q116 121 116 297t-116 294q-117 118 -284 118zM92 518q0 229 159 383t385 154t385 -154t159 -383t-159 -386t-385 -157t-385 157t-159 386zM537 1196l200 244h178l-231 -244h-147z" />
    <glyph glyph-name="ocircumflex" unicode="&#xf4;" horiz-adv-x="1271" 
d="M636 930q-168 0 -284 -118t-116 -294t116 -297t284 -121q167 0 284 121q116 121 116 297t-116 294q-117 118 -284 118zM92 518q0 229 159 383t385 154t385 -154t159 -383t-159 -386t-385 -157t-385 157t-159 386zM381 1196l172 244h168l170 -244h-141l-111 166h-4
l-111 -166h-143z" />
    <glyph glyph-name="otilde" unicode="&#xf5;" horiz-adv-x="1271" 
d="M311 1202q0 240 191 240q63 0 110 -36t81 -72t69 -36q84 0 84 138h117q0 -240 -191 -240q-51 0 -91 23q-39 23 -61 49q-60 71 -108 69q-82 0 -82 -135h-119zM636 930q-168 0 -284 -118t-116 -294t116 -297t284 -121q167 0 284 121q116 121 116 297t-116 294
q-117 118 -284 118zM92 518q0 229 159 383t385 154t385 -154t159 -383t-159 -386t-385 -157t-385 157t-159 386z" />
    <glyph glyph-name="odieresis" unicode="&#xf6;" horiz-adv-x="1271" 
d="M636 930q-168 0 -284 -118t-116 -294t116 -297t284 -121q167 0 284 121q116 121 116 297t-116 294q-117 118 -284 118zM92 518q0 229 159 383t385 154t385 -154t159 -383t-159 -386t-385 -157t-385 157t-159 386zM379 1264v176h141v-176h-141zM754 1264v176h141v-176
h-141z" />
    <glyph glyph-name="divide" unicode="&#xf7;" horiz-adv-x="1241" 
d="M543 125v151h153v-151h-153zM119 522v119h1003v-119h-1003zM543 887v151h153v-151h-153z" />
    <glyph glyph-name="oslash" unicode="&#xf8;" horiz-adv-x="1271" 
d="M444 154q96 -53 193 -54q166 0 283 121q116 121 116 296t-123 294zM369 207l475 663q-100 59 -207 60q-168 0 -285 -118q-116 -118 -116 -297t133 -308zM92 520q0 227 159 381t384 154q156 0 285 -78l79 110l74 -53l-78 -110q185 -160 185 -398t-159 -394
q-159 -157 -384 -157q-147 0 -268 72l-80 -110l-74 55l76 104q-199 162 -199 424z" />
    <glyph glyph-name="ugrave" unicode="&#xf9;" horiz-adv-x="1333" 
d="M588 1196l-232 244h179l200 -244h-147zM219 375v540h-184v115h323v-620q0 -135 37 -212q47 -94 202 -94t260 130t106 307v374h-185v115h324v-872q0 -45 45 -45h117v-113h-174q-123 0 -123 115v51l2 74h-4q-25 -73 -118 -160q-48 -45 -124 -75t-166 -30q-176 1 -257 99
t-81 301z" />
    <glyph glyph-name="uacute" unicode="&#xfa;" horiz-adv-x="1333" 
d="M219 375v540h-184v115h323v-620q0 -135 37 -212q47 -94 202 -94t260 130t106 307v374h-185v115h324v-872q0 -45 45 -45h117v-113h-174q-123 0 -123 115v51l2 74h-4q-25 -73 -118 -160q-48 -45 -124 -75t-166 -30q-176 1 -257 99t-81 301zM539 1196l200 244h179l-232 -244
h-147z" />
    <glyph glyph-name="ucircumflex" unicode="&#xfb;" horiz-adv-x="1333" 
d="M219 375v540h-184v115h323v-620q0 -135 37 -212q47 -94 202 -94t260 130t106 307v374h-185v115h324v-872q0 -45 45 -45h117v-113h-174q-123 0 -123 115v51l2 74h-4q-25 -73 -118 -160q-48 -45 -124 -75t-166 -30q-176 1 -257 99t-81 301zM381 1196l172 244h168l170 -244
h-141l-111 166h-4l-111 -166h-143z" />
    <glyph glyph-name="udieresis" unicode="&#xfc;" horiz-adv-x="1333" 
d="M219 375v540h-184v115h323v-620q0 -135 37 -212q47 -94 202 -94t260 130t106 307v374h-185v115h324v-872q0 -45 45 -45h117v-113h-174q-123 0 -123 115v51l2 74h-4q-25 -73 -118 -160q-48 -45 -124 -75t-166 -30q-176 1 -257 99t-81 301zM381 1264v176h141v-176h-141z
M756 1264v176h141v-176h-141z" />
    <glyph glyph-name="yacute" unicode="&#xfd;" horiz-adv-x="1175" 
d="M500 1196l200 244h179l-232 -244h-147zM266 -307q125 0 197 164l57 137l-368 921h-136v115h433v-115h-150l270 -702l17 -74h6q6 35 20 74l271 702h-150v115h426v-115h-135l-438 -1105q-45 -112 -127 -176t-189 -64q-51 0 -100 15t-72 30l-22 16l53 111q59 -49 137 -49z
" />
    <glyph glyph-name="thorn" unicode="&#xfe;" horiz-adv-x="1220" 
d="M656 930q-144 0 -240 -104t-97 -296q-1 -190 89 -310t236 -120t241 114q94 114 94 300t-90 301q-89 115 -233 115zM8 1325v115h316v-500l-2 -84h4q4 8 10 22t35 47q64 75 164 108q63 22 137 22q206 0 328 -150q122 -151 122 -391t-128 -390t-330 -149q-142 0 -226 68
q-83 68 -104 111l-10 20h-5q4 -37 5 -90v-379h174v-115h-488v115h174v1620h-176z" />
    <glyph glyph-name="ydieresis" unicode="&#xff;" horiz-adv-x="1175" 
d="M342 1264v176h141v-176h-141zM717 1264v176h141v-176h-141zM266 -307q125 0 197 164l57 137l-368 921h-136v115h433v-115h-150l270 -702l17 -74h6q6 35 20 74l271 702h-150v115h426v-115h-135l-438 -1105q-45 -112 -127 -176t-189 -64q-51 0 -100 15t-72 30l-22 16
l53 111q59 -49 137 -49z" />
    <glyph glyph-name="Amacron" unicode="&#x100;" horiz-adv-x="1468" 
d="M483 1608v112h504v-112h-504zM492 610h483l-215 590l-23 92h-6q-4 -45 -20 -92zM23 0v119h147l485 1321h158l485 -1321h148v-119h-461v119h166l-137 370h-561l-136 -370h166v-119h-460z" />
    <glyph glyph-name="amacron" unicode="&#x101;" horiz-adv-x="1118" 
d="M276 1264v112h504v-112h-504zM221 297q-1 -84 59 -145t162 -62q145 0 235 120q89 120 89 267v49h-59q-486 0 -486 -229zM78 283q0 348 620 348h68v43q0 260 -248 260q-78 0 -152 -25t-112 -49l-35 -26l-65 104q16 12 46 32t126 52q96 33 200 33q379 0 379 -387v-508
q0 -45 45 -45h113v-115h-168q-123 0 -123 113v18l6 80h-4q-34 -85 -114 -154q-36 -31 -100 -57t-138 -25q-139 0 -242 80q-102 81 -102 228z" />
    <glyph glyph-name="Abreve" unicode="&#x102;" horiz-adv-x="1468" 
d="M733 1534q-100 0 -170 57t-69 162v31h120v-27q0 -61 34 -92t85 -31t86 31t35 92v27h121v-31q0 -103 -71 -161t-171 -58zM492 610h483l-215 590l-23 92h-6q-4 -45 -20 -92zM23 0v119h147l485 1321h158l485 -1321h148v-119h-461v119h166l-137 370h-561l-136 -370h166v-119
h-460z" />
    <glyph glyph-name="abreve" unicode="&#x103;" horiz-adv-x="1118" 
d="M528 1190q-100 0 -170 57t-69 162v31h121v-27q0 -61 34 -92t84 -31q51 0 86 31t35 92v27h121v-31q0 -103 -71 -161t-171 -58zM221 297q-1 -84 59 -145t162 -62q145 0 235 120q89 120 89 267v49h-59q-486 0 -486 -229zM78 283q0 348 620 348h68v43q0 260 -248 260
q-78 0 -152 -25t-112 -49l-35 -26l-65 104q16 12 46 32t126 52q96 33 200 33q379 0 379 -387v-508q0 -45 45 -45h113v-115h-168q-123 0 -123 113v18l6 80h-4q-34 -85 -114 -154q-36 -31 -100 -57t-138 -25q-139 0 -242 80q-102 81 -102 228z" />
    <glyph glyph-name="Aogonek" unicode="&#x104;" horiz-adv-x="1468" 
d="M492 610h483l-215 590l-23 92h-6q-4 -45 -20 -92zM985 0v119h166l-137 370h-561l-136 -370h166v-119h-460v119h147l485 1321h158l485 -1321h148v-119h-10q-33 0 -102 -75q-68 -75 -68 -136t51 -88t84 -27l-31 -108q-54 4 -112 30q-115 50 -115 172q0 123 139 232h-297z
" />
    <glyph glyph-name="aogonek" unicode="&#x105;" horiz-adv-x="1118" 
d="M221 297q-1 -84 59 -145t162 -62q145 0 235 120q89 120 89 267v49h-59q-486 0 -486 -229zM887 0q-115 0 -115 113v18l6 80h-4q-34 -85 -114 -154q-36 -31 -100 -57t-138 -25q-139 0 -242 80q-102 80 -102 228q0 348 620 348h68v43q0 260 -248 260q-78 0 -152 -25
t-112 -49l-35 -26l-65 104q16 12 46 32t126 52q96 33 200 33q379 0 379 -387v-508q0 -45 45 -45h113v-115h-10q-33 0 -102 -75t-69 -136t52 -88q51 -27 84 -27l-29 -108q-49 4 -109 29q-118 50 -118 173t139 232h-14z" />
    <glyph glyph-name="Cacute" unicode="&#x106;" horiz-adv-x="1519" 
d="M111 727q0 315 210 526t519 211q164 0 331 -59q89 -31 147 -90t58 -137v-154h-137v115q0 67 -70 113q-126 84 -323 83q-252 0 -419 -171t-167 -436t169 -444t425 -180q106 0 247 41q69 19 115 61t46 95v113h137v-154q-1 -74 -57 -132t-144 -90q-167 -61 -348 -63
q-319 1 -529 219t-210 533zM717 1540l201 244h178l-232 -244h-147z" />
    <glyph glyph-name="cacute" unicode="&#x107;" horiz-adv-x="1126" 
d="M636 -25q-226 1 -384 149t-158 387t156 391t383 153q117 0 238 -47q63 -25 103 -71t40 -106v-112h-129v76q0 63 -82 99t-168 36q-172 0 -285 -115q-112 -115 -112 -300t116 -300t287 -115q116 0 211 51q46 22 85 56q40 34 42 35l59 -107q-176 -160 -402 -160zM506 1196
l201 244h178l-232 -244h-147z" />
    <glyph glyph-name="Ccircumflex" unicode="&#x108;" horiz-adv-x="1519" 
d="M111 727q0 315 210 526t519 211q164 0 331 -59q89 -31 147 -90t58 -137v-154h-137v115q0 67 -70 113q-126 84 -323 83q-252 0 -419 -171t-167 -436t169 -444t425 -180q106 0 247 41q69 19 115 61t46 95v113h137v-154q-1 -74 -57 -132t-144 -90q-167 -61 -348 -63
q-319 1 -529 219t-210 533zM559 1540l172 244h168l170 -244h-141l-111 166h-4l-111 -166h-143z" />
    <glyph glyph-name="ccircumflex" unicode="&#x109;" horiz-adv-x="1126" 
d="M636 -25q-226 1 -384 149t-158 387t156 391t383 153q117 0 238 -47q63 -25 103 -71t40 -106v-112h-129v76q0 63 -82 99t-168 36q-172 0 -285 -115q-112 -115 -112 -300t116 -300t287 -115q116 0 211 51q46 22 85 56q40 34 42 35l59 -107q-176 -160 -402 -160zM350 1196
l172 244h168l170 -244h-141l-111 166h-4l-110 -166h-144z" />
    <glyph glyph-name="Cdotaccent" unicode="&#x10a;" horiz-adv-x="1519" 
d="M743 1610v174h146v-174h-146zM111 727q0 315 210 526t519 211q164 0 331 -59q89 -31 147 -90t58 -137v-154h-137v115q0 67 -70 113q-126 84 -323 83q-252 0 -419 -171t-167 -436t169 -444t425 -180q106 0 247 41q69 19 115 61t46 95v113h137v-154q-1 -74 -57 -132
t-144 -90q-167 -61 -348 -63q-319 1 -529 219t-210 533z" />
    <glyph glyph-name="cdotaccent" unicode="&#x10b;" horiz-adv-x="1126" 
d="M532 1266v174h146v-174h-146zM636 -25q-226 1 -384 149t-158 387t156 391t383 153q117 0 238 -47q63 -25 103 -71t40 -106v-112h-129v76q0 63 -82 99t-168 36q-172 0 -285 -115q-112 -115 -112 -300t116 -300t287 -115q116 0 211 51q46 22 85 56q40 34 42 35l59 -107
q-176 -160 -402 -160z" />
    <glyph glyph-name="Ccaron" unicode="&#x10c;" horiz-adv-x="1519" 
d="M111 727q0 315 210 526t519 211q164 0 331 -59q89 -31 147 -90t58 -137v-154h-137v115q0 67 -70 113q-126 84 -323 83q-252 0 -419 -171t-167 -436t169 -444t425 -180q106 0 247 41q69 19 115 61t46 95v113h137v-154q-1 -74 -57 -132t-144 -90q-167 -61 -348 -63
q-319 1 -529 219t-210 533zM731 1540l-172 244h143l111 -164h4l111 164h141l-170 -244h-168z" />
    <glyph glyph-name="ccaron" unicode="&#x10d;" horiz-adv-x="1126" 
d="M636 -25q-226 1 -384 149t-158 387t156 391t383 153q117 0 238 -47q63 -25 103 -71t40 -106v-112h-129v76q0 63 -82 99t-168 36q-172 0 -285 -115q-112 -115 -112 -300t116 -300t287 -115q116 0 211 51q46 22 85 56q40 34 42 35l59 -107q-176 -160 -402 -160zM522 1196
l-172 244h144l110 -164h4l111 164h141l-170 -244h-168z" />
    <glyph glyph-name="Dcaron" unicode="&#x10e;" horiz-adv-x="1589" 
d="M442 123h265q365 0 519 235q95 146 95 360t-92 361t-256 205q-96 33 -266 33h-265v-1194zM111 0v119h188v1202h-188v119h608q184 0 307 -37q207 -68 326 -247q118 -179 118 -439t-122 -438t-340 -244q-109 -35 -289 -35h-608zM649 1540l-172 244h144l110 -164h4l111 164
h141l-170 -244h-168z" />
    <glyph glyph-name="dcaron" unicode="&#x10f;" horiz-adv-x="1265" 
d="M242 515q0 -189 90 -302t233 -113t239 104t97 292q0 188 -85 310q-84 122 -234 122t-245 -112t-95 -301zM545 -25q-205 1 -326 149t-121 391t129 391t336 149q137 0 217 -64q79 -64 109 -117l10 -20h4q-6 35 -6 80v391h-184v115h323v-1280q0 -45 45 -45h115v-115h-170
q-123 0 -123 113v18l8 64h-4q-4 -7 -11 -23t-37 -54q-65 -82 -171 -119q-66 -24 -143 -24zM1321 1346q0 -141 -125 -224l-74 58q74 78 74 153q1 44 -22 107h131q16 -39 16 -94z" />
    <glyph glyph-name="Dcroat" unicode="&#x110;" horiz-adv-x="1607" 
d="M442 123h310q270 0 429 156q159 155 159 441t-160 442t-428 155h-310v-533h349v-122h-349v-539zM111 0v119h188v543h-160v122h160v537h-188v119h655q328 0 526 -192t197 -529q0 -339 -197 -529t-526 -190h-655z" />
    <glyph glyph-name="dcroat" unicode="&#x111;" horiz-adv-x="1265" 
d="M242 515q0 -189 90 -302t233 -113t239 104t97 292q0 188 -85 310q-84 122 -234 122t-245 -112t-95 -301zM545 -25q-205 1 -326 149t-121 391t129 391t336 149q134 0 217 -68t109 -119l10 -20h4q-6 35 -6 82v231h-311v105h311v174h139v-174h164v-105h-164v-1001
q0 -45 45 -45h115v-115h-170q-123 0 -123 113v18l8 64h-4q-4 -7 -11 -23t-37 -54q-65 -82 -171 -119q-66 -24 -143 -24z" />
    <glyph glyph-name="Emacron" unicode="&#x112;" horiz-adv-x="1282" 
d="M406 1608v112h503v-112h-503zM111 0v119h188v1202h-188v119h1017v-299h-131v176h-555v-531h545v-122h-545v-541h594v186h129v-309h-1054z" />
    <glyph glyph-name="emacron" unicode="&#x113;" horiz-adv-x="1130" 
d="M354 1264v112h504v-112h-504zM594 938q-127 0 -225 -85t-123 -237h645q-6 156 -88 239t-209 83zM635 -25q-231 -1 -385 151t-154 393t146 388t357 147q210 0 324 -135q114 -136 113 -339l-6 -66h-790q4 -194 118 -304t281 -110q84 0 162 31t114 62l37 30l64 -104
q-16 -16 -47 -40t-130 -64t-204 -40z" />
    <glyph glyph-name="Ebreve" unicode="&#x114;" horiz-adv-x="1282" 
d="M655 1534q-100 0 -170 57t-69 162v31h121v-27q-1 -61 33 -92t85 -31t86 31t35 92v27h121v-31q0 -103 -71 -161t-171 -58zM111 0v119h188v1202h-188v119h1017v-299h-131v176h-555v-531h545v-122h-545v-541h594v186h129v-309h-1054z" />
    <glyph glyph-name="ebreve" unicode="&#x115;" horiz-adv-x="1130" 
d="M604 1190q-100 0 -170 57t-69 162v31h120v-27q0 -61 34 -92t85 -31t86 31t35 92v27h121v-31q0 -103 -71 -161t-171 -58zM594 938q-127 0 -225 -85t-123 -237h645q-6 156 -88 239t-209 83zM635 -25q-231 -1 -385 151t-154 393t146 388t357 147q210 0 324 -135
q114 -136 113 -339l-6 -66h-790q4 -194 118 -304t281 -110q84 0 162 31t114 62l37 30l64 -104q-16 -16 -47 -40t-130 -64t-204 -40z" />
    <glyph glyph-name="Edotaccent" unicode="&#x116;" horiz-adv-x="1282" 
d="M584 1610v174h145v-174h-145zM111 0v119h188v1202h-188v119h1017v-299h-131v176h-555v-531h545v-122h-545v-541h594v186h129v-309h-1054z" />
    <glyph glyph-name="edotaccent" unicode="&#x117;" horiz-adv-x="1130" 
d="M532 1266v174h146v-174h-146zM594 938q-127 0 -225 -85t-123 -237h645q-6 156 -88 239t-209 83zM635 -25q-231 -1 -385 151t-154 393t146 388t357 147q210 0 324 -135q114 -136 113 -339l-6 -66h-790q4 -194 118 -304t281 -110q84 0 162 31t114 62l37 30l64 -104
q-16 -16 -47 -40t-130 -64t-204 -40z" />
    <glyph glyph-name="Eogonek" unicode="&#x118;" horiz-adv-x="1282" 
d="M111 0v119h188v1202h-188v119h1017v-299h-131v176h-555v-531h545v-122h-545v-541h594v186h129v-309h-10q-33 0 -103 -74t-69 -136q0 -62 51 -89t84 -27l-28 -108q-51 4 -110 29q-118 51 -118 173q0 123 139 232h-890z" />
    <glyph glyph-name="eogonek" unicode="&#x119;" horiz-adv-x="1128" 
d="M592 938q-127 0 -225 -85t-123 -237h645q-6 156 -88 239t-209 83zM94 517q0 243 146 390t357 147q210 0 324 -135q114 -136 113 -339l-6 -66h-790q4 -194 118 -304t281 -110q84 0 162 31t114 62l37 30l64 -104q-70 -59 -140 -93t-134 -102t-64 -132t51 -91t84 -27
l-29 -108q-49 4 -109 29q-118 50 -118 167t111 215q-246 -15 -409 141t-163 399z" />
    <glyph glyph-name="Ecaron" unicode="&#x11a;" horiz-adv-x="1282" 
d="M111 0v119h188v1202h-188v119h1017v-299h-131v176h-555v-531h545v-122h-545v-541h594v186h129v-309h-1054zM571 1540l-172 244h144l110 -164h4l111 164h141l-170 -244h-168z" />
    <glyph glyph-name="ecaron" unicode="&#x11b;" horiz-adv-x="1130" 
d="M594 938q-127 0 -225 -85t-123 -237h645q-6 156 -88 239t-209 83zM635 -25q-231 -1 -385 151t-154 393t146 388t357 147q210 0 324 -135q114 -136 113 -339l-6 -66h-790q4 -194 118 -304t281 -110q84 0 162 31t114 62l37 30l64 -104q-16 -16 -47 -40t-130 -64t-204 -40z
M522 1196l-172 244h144l110 -164h4l111 164h141l-170 -244h-168z" />
    <glyph glyph-name="Gcircumflex" unicode="&#x11c;" horiz-adv-x="1570" 
d="M113 721q0 323 208 533t539 210q293 0 458 -130q85 -67 85 -152v-158h-137v109q0 94 -125 148t-279 54q-272 0 -436 -172t-164 -440t166 -443t432 -176q128 0 274 42q74 22 120 66t46 101v226h-301v118h437v-376q0 -103 -102 -177q-179 -129 -492 -129q-312 0 -520 212
t-209 534zM580 1540l172 244h168l170 -244h-142l-110 166h-4l-111 -166h-143z" />
    <glyph glyph-name="gcircumflex" unicode="&#x11d;" horiz-adv-x="1253" 
d="M572 131q144 0 230 95q85 95 85 309q0 395 -326 395q-149 0 -233 -104t-84 -289q0 -184 92 -295t236 -111zM100 534q0 234 121 377t326 144q117 0 212 -46t134 -137h4q-4 14 -4 58q0 100 119 100h184v-115h-127q-45 0 -45 -43v-847q0 -229 -142 -342t-336 -113t-353 82
l53 112q128 -72 284 -72t255 81q99 80 100 245v103l6 74h-4q-99 -189 -317 -189t-344 148q-126 146 -126 380zM346 1196l172 244h168l170 -244h-141l-111 166h-4l-111 -166h-143z" />
    <glyph glyph-name="Gbreve" unicode="&#x11e;" horiz-adv-x="1570" 
d="M834 1534q-100 0 -170 57t-70 162v31h121v-27q0 -61 34 -92t85 -31t86 31t34 92v27h121v-31q0 -104 -70 -162q-71 -57 -171 -57zM113 721q0 323 208 533t539 210q293 0 458 -130q85 -67 85 -152v-158h-137v109q0 94 -125 148t-279 54q-272 0 -436 -172t-164 -440
t166 -443t432 -176q128 0 274 42q74 22 120 66t46 101v226h-301v118h437v-376q0 -103 -102 -177q-179 -129 -492 -129q-312 0 -520 212t-209 534z" />
    <glyph glyph-name="gbreve" unicode="&#x11f;" horiz-adv-x="1253" 
d="M602 1190q-100 0 -170 57t-70 162v31h121v-27q0 -61 34 -92t85 -31t86 31t35 92v27h121v-31q0 -103 -71 -161t-171 -58zM572 131q144 0 230 95q85 95 85 309q0 395 -326 395q-149 0 -233 -104t-84 -289q0 -184 92 -295t236 -111zM100 534q0 234 121 377t326 144
q117 0 212 -46t134 -137h4q-4 14 -4 58q0 100 119 100h184v-115h-127q-45 0 -45 -43v-847q0 -229 -142 -342t-336 -113t-353 82l53 112q128 -72 284 -72t255 81q99 80 100 245v103l6 74h-4q-99 -189 -317 -189t-344 148q-126 146 -126 380z" />
    <glyph glyph-name="Gdotaccent" unicode="&#x120;" horiz-adv-x="1570" 
d="M762 1610v174h145v-174h-145zM113 721q0 323 208 533t539 210q293 0 458 -130q85 -67 85 -152v-158h-137v109q0 94 -125 148t-279 54q-272 0 -436 -172t-164 -440t166 -443t432 -176q128 0 274 42q74 22 120 66t46 101v226h-301v118h437v-376q0 -103 -102 -177
q-179 -129 -492 -129q-312 0 -520 212t-209 534z" />
    <glyph glyph-name="gdotaccent" unicode="&#x121;" horiz-adv-x="1253" 
d="M530 1266v174h146v-174h-146zM572 131q144 0 230 95q85 95 85 309q0 395 -326 395q-149 0 -233 -104t-84 -289q0 -184 92 -295t236 -111zM100 534q0 234 121 377t326 144q117 0 212 -46t134 -137h4q-4 14 -4 58q0 100 119 100h184v-115h-127q-45 0 -45 -43v-847
q0 -229 -142 -342t-336 -113t-353 82l53 112q128 -72 284 -72t255 81q99 80 100 245v103l6 74h-4q-99 -189 -317 -189t-344 148q-126 146 -126 380z" />
    <glyph glyph-name="Gcommaaccent" unicode="&#x122;" horiz-adv-x="1570" 
d="M113 721q0 323 208 533t539 210q293 0 458 -130q85 -67 85 -152v-158h-137v109q0 94 -125 148t-279 54q-272 0 -436 -172t-164 -440t166 -443t432 -176q128 0 274 42q74 22 120 66t46 101v226h-301v118h437v-376q0 -103 -102 -177q-179 -129 -492 -129q-312 0 -520 212
t-209 534zM907 -221q0 -141 -125 -223l-73 57q74 78 73 154q1 43 -22 106h131q16 -39 16 -94z" />
    <glyph glyph-name="gcommaaccent" unicode="&#x123;" horiz-adv-x="1253" 
d="M572 131q144 0 230 95q85 95 85 309q0 395 -326 395q-149 0 -233 -104t-84 -289q0 -184 92 -295t236 -111zM100 534q0 234 121 377t326 144q117 0 212 -46t134 -137h4q-4 14 -4 58q0 100 119 100h184v-115h-127q-45 0 -45 -43v-847q0 -229 -142 -342t-336 -113t-353 82
l53 112q128 -72 284 -72t255 81q99 80 100 245v103l6 74h-4q-99 -189 -317 -189t-344 148q-126 146 -126 380zM502 1276q0 141 125 223l73 -57q-74 -78 -73 -154q-1 -43 22 -106h-131q-16 39 -16 94z" />
    <glyph glyph-name="Hcircumflex" unicode="&#x124;" horiz-adv-x="1718" 
d="M111 0v119h188v1202h-188v119h520v-119h-189v-539h834v539h-189v119h521v-119h-189v-1202h189v-119h-521v119h189v540h-834v-540h189v-119h-520zM604 1540l172 244h168l170 -244h-141l-111 166h-4l-110 -166h-144z" />
    <glyph glyph-name="hcircumflex" unicode="&#x125;" horiz-adv-x="1347" 
d="M61 0v115h175v1210h-185v115h324v-566l-8 -83h4q41 94 149 179t278 85q170 -1 250 -101t80 -299v-540h177v-115h-316v618q0 146 -44 226q-45 80 -195 80t-263 -123t-112 -307v-379h174v-115h-488zM49 1540l172 244h168l170 -244h-141l-111 166h-4l-110 -166h-144z" />
    <glyph glyph-name="Hbar" unicode="&#x126;" horiz-adv-x="1718" 
d="M442 766h834v248h-834v-248zM127 1014v98h172v209h-188v119h520v-119h-189v-209h834v209h-189v119h521v-119h-189v-209h172v-98h-172v-895h189v-119h-521v119h189v536h-834v-536h189v-119h-520v119h188v895h-172z" />
    <glyph glyph-name="hbar" unicode="&#x127;" horiz-adv-x="1347" 
d="M61 0v115h175v1046h-156v105h156v174h139v-174h313v-105h-313v-287l-8 -83h4q41 94 149 179t278 85q170 -1 250 -101t80 -299v-540h177v-115h-316v618q0 146 -44 226t-179 80q-168 0 -280 -125t-111 -301v-383h168v-115h-482z" />
    <glyph glyph-name="Itilde" unicode="&#x128;" horiz-adv-x="741" 
d="M47 1546q0 240 191 240q63 0 110 -36t81 -72t69 -36q84 0 84 138h116q0 -240 -190 -240q-91 0 -152 71q-62 71 -108 70q-82 0 -82 -135h-119zM111 0v119h188v1202h-188v119h520v-119h-189v-1202h189v-119h-520z" />
    <glyph glyph-name="itilde" unicode="&#x129;" horiz-adv-x="622" 
d="M-2 1202q0 240 190 240q62 0 110 -36t82 -72t69 -36q84 0 83 138h117q0 -240 -190 -240q-91 0 -152 71q-62 71 -108 70q-82 0 -82 -135h-119zM96 0v115h158v800h-160v115h299v-915h158v-115h-455z" />
    <glyph glyph-name="Imacron" unicode="&#x12a;" horiz-adv-x="741" 
d="M121 1608v112h504v-112h-504zM111 0v119h188v1202h-188v119h520v-119h-189v-1202h189v-119h-520z" />
    <glyph glyph-name="imacron" unicode="&#x12b;" horiz-adv-x="622" 
d="M72 1264v112h503v-112h-503zM96 0v115h158v800h-160v115h299v-915h158v-115h-455z" />
    <glyph glyph-name="Ibreve" unicode="&#x12c;" horiz-adv-x="741" 
d="M371 1534q-100 0 -170 57t-70 162v31h121v-27q0 -61 34 -92t85 -31t86 31t35 92v27h120v-31q0 -104 -70 -162q-71 -57 -171 -57zM111 0v119h188v1202h-188v119h520v-119h-189v-1202h189v-119h-520z" />
    <glyph glyph-name="ibreve" unicode="&#x12d;" horiz-adv-x="622" 
d="M322 1190q-100 0 -170 57t-70 162v31h121v-27q0 -61 34 -92t85 -31t86 31t34 92v27h121v-31q0 -104 -70 -162q-71 -57 -171 -57zM96 0v115h158v800h-160v115h299v-915h158v-115h-455z" />
    <glyph glyph-name="Iogonek" unicode="&#x12e;" horiz-adv-x="741" 
d="M111 0v119h188v1202h-188v119h520v-119h-189v-1202h189v-119h-15q-36 -4 -102 -77t-66 -134t52 -88q51 -27 84 -27l-31 -108q-154 17 -205 112q-20 37 -20 84q0 131 137 238h-354z" />
    <glyph glyph-name="iogonek" unicode="&#x12f;" horiz-adv-x="643" 
d="M260 1266v174h158v-174h-158zM94 0v115h174v800h-184v115h324v-915h174v-115h-9q-33 0 -101 -75t-69 -136t51 -88t85 -27l-31 -108q-49 4 -109 29q-120 51 -119 174q1 122 140 231h-326z" />
    <glyph glyph-name="Idotaccent" unicode="&#x130;" horiz-adv-x="741" 
d="M299 1610v174h145v-174h-145zM111 0v119h188v1202h-188v119h520v-119h-189v-1202h189v-119h-520z" />
    <glyph glyph-name="dotlessi" unicode="&#x131;" horiz-adv-x="622" 
d="M96 0v115h158v800h-160v115h299v-915h158v-115h-455z" />
    <glyph glyph-name="IJ" unicode="&#x132;" horiz-adv-x="1431" 
d="M723 117q299 0 299 336v868h-193v119h521v-119h-185v-860q0 -372 -284 -452q-72 -19 -158 -17v125zM111 0v119h186v1202h-188v119h520v-119h-189v-1202h168v-119h-497z" />
    <glyph glyph-name="ij" unicode="&#x133;" horiz-adv-x="1167" 
d="M613 -301q32 0 67 9q164 42 164 257v950h-185v115h324v-1067q0 -98 -27 -171q-48 -128 -157 -176q-84 -38 -176 -38l-60 6v119q18 -4 50 -4zM834 1266v174h157v-174h-157zM94 0v115h174v800h-184v115h324v-915h174v-115h-488zM260 1266v174h158v-174h-158z" />
    <glyph glyph-name="Jcircumflex" unicode="&#x134;" horiz-adv-x="1118" 
d="M59 393v68h142v-51q1 -131 67 -217q66 -87 184 -87t194 74t75 230v911h-219v119h530v-119h-168v-924q0 -213 -119 -317t-285 -104t-283 102q-118 102 -118 315zM535 1540l172 244h167l170 -244h-141l-110 166h-5l-110 -166h-143z" />
    <glyph glyph-name="jcircumflex" unicode="&#x135;" horiz-adv-x="561" 
d="M-43 -297q18 -4 71 -4t106 34q104 66 104 232v950h-185v115h324v-1067q0 -98 -27 -171q-48 -128 -157 -176q-84 -38 -177 -38l-59 6v119zM-6 1196l170 244h168l172 -244h-144l-110 166h-4l-111 -166h-141z" />
    <glyph glyph-name="Kcommaaccent" unicode="&#x136;" horiz-adv-x="1370" 
d="M111 0v119h188v1202h-188v119h510v-119h-179v-508h211l353 508h-142v119h447v-119h-146l-397 -559v-4q33 -16 70 -84l295 -498q35 -57 106 -57h72v-119h-109q-86 0 -123 22t-75 87l-302 518q-37 63 -114 63h-146v-571h187v-119h-518zM668 -233q0 43 -23 106h131
q16 -39 17 -94q0 -141 -125 -223l-74 57q74 78 74 154z" />
    <glyph glyph-name="kcommaaccent" unicode="&#x137;" horiz-adv-x="1146" 
d="M61 0v115h175v1210h-185v115h324v-811h162l243 286h-147v115h442v-115h-143l-283 -327v-4q9 0 31 -26t41 -56l205 -344q16 -27 33 -35t61 -8h70v-115h-115q-76 0 -109 19t-69 83l-219 371q-29 43 -101 43h-102v-401h164v-115h-478zM580 -233q0 43 -23 106h131
q16 -39 17 -94q0 -141 -125 -223l-74 57q74 78 74 154z" />
    <glyph glyph-name="kgreenlandic" unicode="&#x138;" horiz-adv-x="1179" 
d="M94 0v115h174v800h-184v115h324v-397h163l242 282h-147v115h440v-115h-139l-283 -327v-4q8 0 30 -26q23 -26 42 -58l202 -342q16 -27 34 -35t61 -8h71v-115h-114q-78 0 -111 19t-70 83l-219 371q-27 43 -100 43h-102v-401h163v-115h-477z" />
    <glyph glyph-name="Lacute" unicode="&#x139;" horiz-adv-x="1212" 
d="M111 0v119h188v1198h-188v123h520v-123h-189v-1194h576v239h131v-362h-1038zM270 1540l201 244h178l-231 -244h-148z" />
    <glyph glyph-name="lacute" unicode="&#x13a;" horiz-adv-x="555" 
d="M182 258v1067h-182v115h322v-1172q0 -154 116 -153l58 4v-119q-39 -6 -80 -6q-234 0 -234 264zM156 1540l200 244h179l-232 -244h-147z" />
    <glyph glyph-name="Lcommaaccent" unicode="&#x13b;" horiz-adv-x="1212" 
d="M111 0v119h188v1198h-188v123h520v-123h-189v-1194h576v239h131v-362h-1038zM768 -221q0 -141 -125 -223l-74 57q74 78 74 154q1 43 -22 106h131q16 -39 16 -94z" />
    <glyph glyph-name="lcommaaccent" unicode="&#x13c;" horiz-adv-x="555" 
d="M182 258v1067h-182v115h322v-1172q0 -154 116 -153l58 4v-119q-39 -6 -80 -6q-234 0 -234 264zM401 -221q0 -141 -125 -223l-73 57q74 78 73 154q1 43 -22 106h131q16 -39 16 -94z" />
    <glyph glyph-name="Lcaron" unicode="&#x13d;" horiz-adv-x="1212" 
d="M111 0v119h188v1198h-188v123h520v-123h-189v-1194h576v239h131v-362h-1038zM768 -221q0 -141 -125 -223l-74 57q74 78 74 154q1 43 -22 106h131q16 -39 16 -94z" />
    <glyph glyph-name="lcaron" unicode="&#x13e;" horiz-adv-x="555" 
d="M182 258v1067h-182v115h322v-1172q0 -154 116 -153l58 4v-119q-39 -6 -80 -6q-234 0 -234 264zM612 1346q0 -141 -125 -224l-73 58q74 78 73 153q1 44 -22 107h131q16 -39 16 -94z" />
    <glyph glyph-name="Ldot" unicode="&#x13f;" horiz-adv-x="1212" 
d="M698 678v170h164v-170h-164zM111 0v119h188v1198h-188v123h520v-123h-189v-1194h576v239h131v-362h-1038z" />
    <glyph glyph-name="ldot" unicode="&#x140;" horiz-adv-x="653" 
d="M496 678v170h163v-170h-163zM182 258v1067h-182v115h322v-1172q0 -154 116 -153l58 4v-119q-39 -6 -80 -6q-234 0 -234 264z" />
    <glyph glyph-name="Lslash" unicode="&#x141;" horiz-adv-x="1212" 
d="M111 0v119h188v487l-180 -94v137l180 92v576h-188v123h520v-123h-189v-500l447 234v-140l-447 -231v-557h580v239h127v-362h-1038z" />
    <glyph glyph-name="lslash" unicode="&#x142;" horiz-adv-x="555" 
d="M182 1325h-182v115h322v-492l186 107v-137l-186 -109v-539q0 -154 116 -153l58 4l-2 -121q-37 -6 -80 -6q-231 0 -232 264v473l-174 -98v137l174 98v457z" />
    <glyph glyph-name="Nacute" unicode="&#x143;" horiz-adv-x="1705" 
d="M111 0v119h188v1202h-188v119h327l807 -1137l43 -88h4l-6 100v1006h-190v119h522v-119h-188v-1321h-140l-807 1137l-43 88h-4l6 -99v-1007h191v-119h-522zM764 1540l201 244h178l-232 -244h-147z" />
    <glyph glyph-name="nacute" unicode="&#x144;" horiz-adv-x="1380" 
d="M94 0v115h174v755q0 45 -45 45h-139v115h197q125 0 125 -115v-59l-9 -74h4q25 73 123 165q49 46 128 77t169 31q184 -1 263 -101t79 -299v-540h174v-115h-313v618q0 146 -45 226t-180 80q-168 0 -280 -127t-111 -301v-381h174v-115h-488zM637 1196l201 244h178l-232 -244
h-147z" />
    <glyph glyph-name="Ncommaaccent" unicode="&#x145;" horiz-adv-x="1705" 
d="M111 0v119h188v1202h-188v119h327l807 -1137l43 -88h4l-6 100v1006h-190v119h522v-119h-188v-1321h-140l-807 1137l-43 88h-4l6 -99v-1007h191v-119h-522zM944 -221q0 -141 -125 -223l-74 57q74 78 74 154q1 43 -22 106h131q16 -39 16 -94z" />
    <glyph glyph-name="ncommaaccent" unicode="&#x146;" horiz-adv-x="1380" 
d="M94 0v115h174v755q0 45 -45 45h-139v115h197q125 0 125 -115v-59l-9 -74h4q25 73 123 165q49 46 128 77t169 31q184 -1 263 -101t79 -299v-540h174v-115h-313v618q0 146 -45 226t-180 80q-168 0 -280 -127t-111 -301v-381h174v-115h-488zM788 -221q0 -141 -124 -223
l-74 57q74 78 74 154q0 43 -23 106h131q16 -39 16 -94z" />
    <glyph glyph-name="Ncaron" unicode="&#x147;" horiz-adv-x="1705" 
d="M111 0v119h188v1202h-188v119h327l807 -1137l43 -88h4l-6 100v1006h-190v119h522v-119h-188v-1321h-140l-807 1137l-43 88h-4l6 -99v-1007h191v-119h-522zM780 1540l-172 244h144l110 -164h4l111 164h141l-170 -244h-168z" />
    <glyph glyph-name="ncaron" unicode="&#x148;" horiz-adv-x="1380" 
d="M94 0v115h174v755q0 45 -45 45h-139v115h197q125 0 125 -115v-59l-9 -74h4q25 73 123 165q49 46 128 77t169 31q184 -1 263 -101t79 -299v-540h174v-115h-313v618q0 146 -45 226t-180 80q-168 0 -280 -127t-111 -301v-381h174v-115h-488zM653 1196l-172 244h144l110 -164
h4l111 164h141l-170 -244h-168z" />
    <glyph glyph-name="napostrophe" unicode="&#x149;" horiz-adv-x="1380" 
d="M94 0v115h174v755q0 45 -45 45h-139v115h197q125 0 125 -115v-59l-9 -74h4q25 73 123 165q49 46 128 77t169 31q184 -1 263 -101t79 -299v-540h174v-115h-313v618q0 146 -45 226t-180 80q-168 0 -280 -127t-111 -301v-381h174v-115h-488zM158 1348q0 43 -23 106h131
q16 -39 17 -94q0 -141 -125 -223l-74 57q74 78 74 154z" />
    <glyph glyph-name="Eng" unicode="&#x14a;" horiz-adv-x="1705" 
d="M111 0v119h188v1202h-188v119h331l803 -1137l43 -88h4l-6 100v1006h-190v119h522v-119h-188v-1296q0 -236 -121 -340t-310 -105v129q121 0 204 71t83 220l-803 1137l-43 88h-4l6 -99v-1007h191v-119h-522z" />
    <glyph glyph-name="eng" unicode="&#x14b;" horiz-adv-x="1329" 
d="M94 0v115h174v755q0 45 -45 45h-139v115h197q125 0 125 -115v-59l-9 -74h4q25 73 123 165q49 46 128 77t169 31q184 -1 263 -101t79 -299v-702q0 -308 -253 -370q-52 -13 -107 -13l-60 6v119q18 -2 50 -2t67 9q164 42 164 255v661q0 146 -45 226t-180 80
q-168 0 -280 -129t-111 -306v-374h174v-115h-488z" />
    <glyph glyph-name="Omacron" unicode="&#x14c;" horiz-adv-x="1689" 
d="M260 726q0 -259 171 -439q171 -181 414 -181t413 180t172 440q0 259 -172 433t-414 174q-244 0 -414 -174t-170 -433zM111 726q0 312 213 525t520 213t521 -213t214 -525t-214 -531t-520 -219t-520 218q-214 220 -214 532zM594 1608v112h504v-112h-504z" />
    <glyph glyph-name="omacron" unicode="&#x14d;" horiz-adv-x="1271" 
d="M636 930q-168 0 -284 -118t-116 -294t116 -297t284 -121q167 0 284 121q116 121 116 297t-116 294q-117 118 -284 118zM92 518q0 229 159 383t385 154t385 -154t159 -383t-159 -386t-385 -157t-385 157t-159 386zM385 1264v112h504v-112h-504z" />
    <glyph glyph-name="Obreve" unicode="&#x14e;" horiz-adv-x="1689" 
d="M844 1534q-100 0 -170 57t-70 162v31h121v-27q0 -61 34 -92t85 -31t86 31t35 92v27h120v-31q0 -104 -70 -162q-71 -57 -171 -57zM260 726q0 -259 171 -439q171 -181 414 -181t413 180t172 440q0 259 -172 433t-414 174q-244 0 -414 -174t-170 -433zM111 726
q0 312 213 525t520 213t521 -213t214 -525t-214 -531t-520 -219t-520 218q-214 220 -214 532z" />
    <glyph glyph-name="obreve" unicode="&#x14f;" horiz-adv-x="1271" 
d="M635 1190q-100 0 -170 57t-70 162v31h121v-27q0 -61 34 -92t85 -31t86 31t35 92v27h121v-31q0 -103 -71 -161t-171 -58zM636 930q-168 0 -284 -118t-116 -294t116 -297t284 -121q167 0 284 121q116 121 116 297t-116 294q-117 118 -284 118zM92 518q0 229 159 383
t385 154t385 -154t159 -383t-159 -386t-385 -157t-385 157t-159 386z" />
    <glyph glyph-name="Ohungarumlaut" unicode="&#x150;" horiz-adv-x="1689" 
d="M260 726q0 -259 171 -439q171 -181 414 -181t413 180t172 440q0 259 -172 433t-414 174q-244 0 -414 -174t-170 -433zM111 726q0 312 213 525t520 213t521 -213t214 -525t-214 -531t-520 -219t-520 218q-214 220 -214 532zM612 1540l133 244h144l-137 -244h-140z
M885 1540l143 244h164l-176 -244h-131z" />
    <glyph glyph-name="ohungarumlaut" unicode="&#x151;" horiz-adv-x="1271" 
d="M636 930q-168 0 -284 -118t-116 -294t116 -297t284 -121q167 0 284 121q116 121 116 297t-116 294q-117 118 -284 118zM92 518q0 229 159 383t385 154t385 -154t159 -383t-159 -386t-385 -157t-385 157t-159 386zM403 1196l134 244h143l-137 -244h-140zM676 1196l143 244
h164l-176 -244h-131z" />
    <glyph glyph-name="OE" unicode="&#x152;" horiz-adv-x="1970" 
d="M848 1333q-260 0 -424 -175t-164 -438t164 -438t424 -176q66 0 143 17v1194q-66 16 -143 16zM113 720q0 314 209 527t526 213l244 -20h727v-299h-127v176h-557v-531h540v-122h-540v-541h596v178h124v-301h-761l-246 -20q-317 0 -526 213t-209 527z" />
    <glyph glyph-name="oe" unicode="&#x153;" horiz-adv-x="2070" 
d="M635 930q-165 0 -281 -117t-116 -300t116 -298t282 -115q167 0 284 116q116 116 116 301t-117 299q-118 114 -284 114zM1536 938q-127 0 -225 -85t-123 -237h645q-6 154 -88 238t-209 84zM633 -25q-225 -1 -382 149t-157 389t157 391t382 151q155 0 277 -74t188 -203h4
q61 131 177 204t265 73q205 0 319 -136t113 -339l-6 -68h-788q8 -194 122 -304t277 -110q82 0 160 31t114 64l37 30l64 -104q-16 -16 -47 -40t-130 -64t-204 -40q-160 0 -284 75t-185 206h-4q-66 -131 -189 -206t-280 -75z" />
    <glyph glyph-name="Racute" unicode="&#x154;" horiz-adv-x="1404" 
d="M442 733h338q131 0 211 83t80 220q0 193 -158 254q-72 27 -190 27h-281v-584zM111 0v119h188v1202h-188v119h616q158 0 256 -33q233 -84 234 -360q-1 -162 -87 -272t-233 -136v-4q27 -18 49 -60l240 -409q16 -29 38 -38t64 -9h41v-119h-78q-92 0 -126 19t-72 90l-242 413
q-29 53 -60 71q-32 17 -102 17h-207v-491h187v-119h-518zM573 1540l201 244h178l-231 -244h-148z" />
    <glyph glyph-name="racute" unicode="&#x155;" horiz-adv-x="817" 
d="M104 0v115h160v755q0 45 -45 45h-139v115h194q125 0 125 -117v-69l-4 -78h4q41 123 126 199t200 75l57 -6v-137q-27 4 -53 4q-109 0 -185 -76q-140 -140 -141 -389v-321h160v-115h-459zM373 1196l200 244h179l-232 -244h-147z" />
    <glyph glyph-name="Rcommaaccent" unicode="&#x156;" horiz-adv-x="1404" 
d="M442 733h338q131 0 211 83t80 220q0 193 -158 254q-72 27 -190 27h-281v-584zM111 0v119h188v1202h-188v119h616q158 0 256 -33q233 -84 234 -360q-1 -162 -87 -272t-233 -136v-4q27 -18 49 -60l240 -409q16 -29 38 -38t64 -9h41v-119h-78q-92 0 -126 19t-72 90l-242 413
q-29 53 -60 71q-32 17 -102 17h-207v-491h187v-119h-518zM709 -233q0 43 -23 106h131q16 -39 17 -94q0 -141 -125 -223l-74 57q74 78 74 154z" />
    <glyph glyph-name="rcommaaccent" unicode="&#x157;" horiz-adv-x="817" 
d="M104 0v115h160v755q0 45 -45 45h-139v115h194q125 0 125 -117v-69l-4 -78h4q41 123 126 199t200 75l57 -6v-137q-27 4 -53 4q-109 0 -185 -76q-140 -140 -141 -389v-321h160v-115h-459zM291 -233q0 43 -23 106h131q16 -39 17 -94q0 -141 -125 -223l-74 57q74 78 74 154z
" />
    <glyph glyph-name="Rcaron" unicode="&#x158;" horiz-adv-x="1404" 
d="M442 733h338q131 0 211 83t80 220q0 193 -158 254q-72 27 -190 27h-281v-584zM111 0v119h188v1202h-188v119h616q158 0 256 -33q233 -84 234 -360q-1 -162 -87 -272t-233 -136v-4q27 -18 49 -60l240 -409q16 -29 38 -38t64 -9h41v-119h-78q-92 0 -126 19t-72 90l-242 413
q-29 53 -60 71q-32 17 -102 17h-207v-491h187v-119h-518zM588 1540l-172 244h143l111 -164h4l110 164h142l-170 -244h-168z" />
    <glyph glyph-name="rcaron" unicode="&#x159;" horiz-adv-x="817" 
d="M104 0v115h160v755q0 45 -45 45h-139v115h194q125 0 125 -117v-69l-4 -78h4q41 123 126 199t200 75l57 -6v-137q-27 4 -53 4q-109 0 -185 -76q-140 -140 -141 -389v-321h160v-115h-459zM389 1196l-172 244h143l111 -164h4l111 164h141l-170 -244h-168z" />
    <glyph glyph-name="Sacute" unicode="&#x15a;" horiz-adv-x="1159" 
d="M121 401h137v-104q0 -88 92 -139q92 -52 229 -52t227 69q89 69 89 192q0 154 -155 234q-87 46 -247 107q-161 61 -208 101q-98 86 -121 169q-14 50 -14 112q0 180 124 277t302 97t303 -61t125 -164v-154h-138v107q0 66 -86 104t-204 37q-118 0 -198 -61q-81 -61 -81 -160
t52 -159q52 -59 173 -109q29 -12 108 -42t123 -48q45 -18 109 -56q183 -109 180 -317q0 -186 -132 -296t-322 -110t-328 76q-139 76 -139 213v137zM473 1540l201 244h178l-231 -244h-148z" />
    <glyph glyph-name="sacute" unicode="&#x15b;" horiz-adv-x="962" 
d="M92 219v100h127v-73q0 -72 83 -111t185 -39t172 43t70 107t-40 105t-80 59t-128 51t-141 57q-142 66 -183 149q-26 50 -26 113q1 133 107 204t240 71q134 -1 243 -53t108 -148v-119h-127v76q0 55 -62 89t-151 34t-151 -39t-64 -101q0 -62 42 -105q42 -42 113 -73t156 -61
q156 -56 221 -123q66 -68 64 -166q0 -133 -108 -212t-271 -79q-163 -1 -281 65t-118 179zM393 1196l201 244h178l-231 -244h-148z" />
    <glyph glyph-name="Scircumflex" unicode="&#x15c;" horiz-adv-x="1159" 
d="M121 401h137v-104q0 -88 92 -139q92 -52 229 -52t227 69q89 69 89 192q0 154 -155 234q-87 46 -247 107q-161 61 -208 101q-98 86 -121 169q-14 50 -14 112q0 180 124 277t302 97t303 -61t125 -164v-154h-138v107q0 66 -86 104t-204 37q-118 0 -198 -61q-81 -61 -81 -160
t52 -159q52 -59 173 -109q29 -12 108 -42t123 -48q45 -18 109 -56q183 -109 180 -317q0 -186 -132 -296t-322 -110t-328 76q-139 76 -139 213v137zM315 1540l172 244h168l170 -244h-141l-111 166h-4l-110 -166h-144z" />
    <glyph glyph-name="scircumflex" unicode="&#x15d;" horiz-adv-x="962" 
d="M92 219v100h127v-73q0 -72 83 -111t185 -39t172 43t70 107t-40 105t-80 59t-128 51t-141 57q-142 66 -183 149q-26 50 -26 113q1 133 107 204t240 71q134 -1 243 -53t108 -148v-119h-127v76q0 55 -62 89t-151 34t-151 -39t-64 -101q0 -62 42 -105q42 -42 113 -73t156 -61
q156 -56 221 -123q66 -68 64 -166q0 -133 -108 -212t-271 -79q-163 -1 -281 65t-118 179zM236 1196l172 244h167l170 -244h-141l-110 166h-5l-110 -166h-143z" />
    <glyph glyph-name="Scedilla" unicode="&#x15e;" horiz-adv-x="1159" 
d="M121 264v137h137v-104q0 -88 92 -139q92 -52 229 -52t227 69q89 69 89 192q0 154 -155 234q-87 46 -247 107q-161 61 -208 101q-98 86 -121 169q-14 50 -14 112q0 180 124 277t302 97t303 -61t125 -164v-154h-138v107q0 66 -86 104t-204 37q-118 0 -198 -61
q-81 -61 -81 -160t52 -159q52 -59 173 -109q29 -12 108 -42t123 -48q45 -18 109 -56q183 -109 180 -317q0 -176 -118 -285t-308 -119l-20 -96q63 -6 106 -47q43 -40 43 -112t-59 -112t-145 -40l-101 10v92q37 -10 86 -10q104 0 105 72q0 74 -121 73h-29l39 170
q-162 11 -280 87t-119 200z" />
    <glyph glyph-name="scedilla" unicode="&#x15f;" horiz-adv-x="962" 
d="M92 219v100h127v-73q0 -72 83 -111t186 -39t172 43t69 107t-40 105t-80 59t-128 51t-141 57q-142 66 -183 149q-26 50 -26 113q1 133 107 204t240 71q134 -1 243 -53t108 -148v-119h-127v76q0 55 -62 89t-151 34t-151 -39t-64 -101q0 -62 42 -105q42 -42 113 -73t156 -61
q156 -56 221 -123q66 -68 64 -166q0 -126 -94 -202t-252 -87l-20 -96q63 -6 106 -47q43 -40 43 -112t-59 -112t-148 -40l-100 10v92q39 -10 88 -10q104 0 105 72q0 74 -121 73h-31l41 170q-140 11 -238 75t-98 167z" />
    <glyph glyph-name="Scaron" unicode="&#x160;" horiz-adv-x="1159" 
d="M121 401h137v-104q0 -88 92 -139q92 -52 229 -52t227 69q89 69 89 192q0 154 -155 234q-87 46 -247 107q-161 61 -208 101q-98 86 -121 169q-14 50 -14 112q0 180 124 277t302 97t303 -61t125 -164v-154h-138v107q0 66 -86 104t-204 37q-118 0 -198 -61q-81 -61 -81 -160
t52 -159q52 -59 173 -109q29 -12 108 -42t123 -48q45 -18 109 -56q183 -109 180 -317q0 -186 -132 -296t-322 -110t-328 76q-139 76 -139 213v137zM487 1540l-172 244h144l110 -164h4l111 164h141l-170 -244h-168z" />
    <glyph glyph-name="scaron" unicode="&#x161;" horiz-adv-x="962" 
d="M92 219v100h127v-73q0 -72 83 -111t185 -39t172 43t70 107t-40 105t-80 59t-128 51t-141 57q-142 66 -183 149q-26 50 -26 113q1 133 107 204t240 71q134 -1 243 -53t108 -148v-119h-127v76q0 55 -62 89t-151 34t-151 -39t-64 -101q0 -62 42 -105q42 -42 113 -73t156 -61
q156 -56 221 -123q66 -68 64 -166q0 -133 -108 -212t-271 -79q-163 -1 -281 65t-118 179zM408 1196l-172 244h143l110 -164h5l110 164h141l-170 -244h-167z" />
    <glyph glyph-name="Tcommaaccent" unicode="&#x162;" horiz-adv-x="1339" 
d="M410 0v119h188v1198h-403v-234h-129v357h1208v-357h-131v234h-402v-1198h189v-119h-217l-25 -119q62 -6 106 -47q44 -40 44 -112t-60 -112t-145 -40l-101 10v92q37 -10 86 -10q106 0 107 72q0 74 -123 73h-29l45 193h-208z" />
    <glyph glyph-name="tcommaaccent" unicode="&#x163;" horiz-adv-x="694" 
d="M223 375v540h-184v115h186v285h137v-285h259v-115h-259v-528q0 -169 89 -228q69 -46 143 -46l47 4v-121q-25 -4 -69 -4t-101 12l-27 -123q62 -6 106 -47q44 -40 44 -112t-59 -112t-148 -40l-100 10v92q39 -10 88 -10q104 0 104 73t-121 72h-30l55 230q-160 92 -160 338z
" />
    <glyph glyph-name="Tcaron" unicode="&#x164;" horiz-adv-x="1339" 
d="M410 0v119h188v1198h-403v-234h-129v357h1208v-357h-131v234h-402v-1198h189v-119h-520zM586 1540l-172 244h143l111 -164h4l110 164h142l-170 -244h-168z" />
    <glyph glyph-name="tcaron" unicode="&#x165;" horiz-adv-x="694" 
d="M221 375v540h-184v115h186v285h137v-285h261v-115h-261v-528q0 -169 89 -228q69 -46 145 -46l47 4v-121q-25 -4 -63 -4q-164 0 -265 98q-39 39 -65 113q-27 74 -27 172zM696 1360q0 -141 -125 -223l-73 57q74 78 73 154q1 43 -22 106h131q16 -39 16 -94z" />
    <glyph glyph-name="Tbar" unicode="&#x166;" horiz-adv-x="1339" 
d="M217 666v112h381v539h-403v-234h-129v357h1208v-357h-131v234h-402v-539h385v-112h-385v-547h189v-119h-520v119h188v547h-381z" />
    <glyph glyph-name="tbar" unicode="&#x167;" horiz-adv-x="694" 
d="M45 573v113h176v234h-184v110h186v285h137v-285h261v-110h-261v-234h246v-113h-246v-186q0 -169 89 -228q69 -46 145 -46l47 4v-121q-25 -4 -63 -4q-164 0 -265 98q-39 39 -65 113q-27 74 -27 172v198h-176z" />
    <glyph glyph-name="Utilde" unicode="&#x168;" horiz-adv-x="1617" 
d="M483 1546q0 240 191 240q63 0 110 -36t81 -72t69 -36q84 0 84 138h117q0 -240 -191 -240q-51 0 -91 23q-39 23 -61 49q-60 71 -108 69q-82 0 -82 -135h-119zM256 530v791h-188v119h520v-119h-189v-789q0 -164 64 -264q104 -162 349 -162t343 168q63 109 64 263v784h-189
v119h520v-119h-188v-791q0 -207 -92 -340q-70 -104 -191 -159t-271 -55t-272 56q-280 130 -280 498z" />
    <glyph glyph-name="utilde" unicode="&#x169;" horiz-adv-x="1333" 
d="M313 1202q0 240 191 240q63 0 110 -36t81 -72t69 -36q84 0 84 138h117q0 -240 -191 -240q-51 0 -91 23q-39 23 -61 49q-60 71 -108 69q-82 0 -82 -135h-119zM219 375v540h-184v115h323v-620q0 -135 37 -212q47 -94 202 -94t260 130t106 307v374h-185v115h324v-872
q0 -45 45 -45h117v-113h-174q-123 0 -123 115v51l2 74h-4q-25 -73 -118 -160q-48 -45 -124 -75t-166 -30q-176 1 -257 99t-81 301z" />
    <glyph glyph-name="Umacron" unicode="&#x16a;" horiz-adv-x="1617" 
d="M557 1608v112h504v-112h-504zM256 530v791h-188v119h520v-119h-189v-789q0 -164 64 -264q104 -162 349 -162t343 168q63 109 64 263v784h-189v119h520v-119h-188v-791q0 -207 -92 -340q-70 -104 -191 -159t-271 -55t-272 56q-280 130 -280 498z" />
    <glyph glyph-name="umacron" unicode="&#x16b;" horiz-adv-x="1333" 
d="M387 1264v112h504v-112h-504zM219 375v540h-184v115h323v-620q0 -135 37 -212q47 -94 202 -94t260 130t106 307v374h-185v115h324v-872q0 -45 45 -45h117v-113h-174q-123 0 -123 115v51l2 74h-4q-25 -73 -118 -160q-48 -45 -124 -75t-166 -30q-176 1 -257 99t-81 301z
" />
    <glyph glyph-name="Ubreve" unicode="&#x16c;" horiz-adv-x="1617" 
d="M807 1534q-100 0 -170 57t-70 162v31h121v-27q0 -61 34 -92t85 -31t86 31t35 92v27h121v-31q0 -103 -71 -161t-171 -58zM256 530v791h-188v119h520v-119h-189v-789q0 -164 64 -264q104 -162 349 -162t343 168q63 109 64 263v784h-189v119h520v-119h-188v-791
q0 -207 -92 -340q-70 -104 -191 -159t-271 -55t-272 56q-280 130 -280 498z" />
    <glyph glyph-name="ubreve" unicode="&#x16d;" horiz-adv-x="1333" 
d="M637 1190q-100 0 -170 57t-70 162v31h121v-27q0 -61 34 -92t85 -31t86 31t35 92v27h121v-31q0 -103 -71 -161t-171 -58zM219 375v540h-184v115h323v-620q0 -135 37 -212q47 -94 202 -94t260 130t106 307v374h-185v115h324v-872q0 -45 45 -45h117v-113h-174
q-123 0 -123 115v51l2 74h-4q-25 -73 -118 -160q-48 -45 -124 -75t-166 -30q-176 1 -257 99t-81 301z" />
    <glyph glyph-name="Uring" unicode="&#x16e;" horiz-adv-x="1617" 
d="M256 530v791h-188v119h520v-119h-189v-789q0 -164 64 -264q104 -162 349 -162t343 168q63 109 64 263v784h-189v119h520v-119h-188v-791q0 -207 -92 -340q-70 -104 -191 -159t-271 -55t-272 56q-280 130 -280 498zM808 1589q34 1 56 21t21 55q0 35 -22 57q-21 22 -55 21
q-34 0 -53 -22q-19 -23 -19 -57t18 -54q20 -20 54 -21zM808 1507q-71 0 -120 44t-49 114t49 115t121 45t122 -45t50 -115t-51 -114t-122 -44z" />
    <glyph glyph-name="uring" unicode="&#x16f;" horiz-adv-x="1333" 
d="M219 375v540h-184v115h323v-620q0 -135 37 -212q47 -94 202 -94t260 130t106 307v374h-185v115h324v-872q0 -45 45 -45h117v-113h-174q-123 0 -123 115v51l2 74h-4q-25 -73 -118 -160q-48 -45 -124 -75t-166 -30q-176 1 -257 99t-81 301zM638 1245q34 1 56 21t21 55
q0 35 -22 57q-21 22 -55 21q-34 0 -53 -22q-19 -23 -19 -57t18 -54q20 -20 54 -21zM638 1163q-71 0 -120 44t-49 114t49 115t121 45t122 -45t50 -115t-51 -114t-122 -44z" />
    <glyph glyph-name="Uhungarumlaut" unicode="&#x170;" horiz-adv-x="1617" 
d="M575 1540l134 244h143l-137 -244h-140zM848 1540l143 244h164l-176 -244h-131zM256 530v791h-188v119h520v-119h-189v-789q0 -164 64 -264q104 -162 349 -162t343 168q63 109 64 263v784h-189v119h520v-119h-188v-791q0 -207 -92 -340q-70 -104 -191 -159t-271 -55
t-272 56q-280 130 -280 498z" />
    <glyph glyph-name="uhungarumlaut" unicode="&#x171;" horiz-adv-x="1333" 
d="M406 1196l133 244h143l-137 -244h-139zM678 1196l143 244h164l-176 -244h-131zM219 375v540h-184v115h323v-620q0 -135 37 -212q47 -94 202 -94t260 130t106 307v374h-185v115h324v-872q0 -45 45 -45h117v-113h-174q-123 0 -123 115v51l2 74h-4q-25 -73 -118 -160
q-48 -45 -124 -75t-166 -30q-176 1 -257 99t-81 301z" />
    <glyph glyph-name="Uogonek" unicode="&#x172;" horiz-adv-x="1619" 
d="M256 502v819h-188v119h520v-119h-189v-817q0 -184 112 -290t298 -108q186 0 298 108t112 294v813h-189v119h520v-119h-188v-819q0 -170 -85 -295t-233 -195q-66 -35 -117 -104q-51 -68 -51 -124t52 -83q51 -27 84 -27l-31 -108q-54 4 -112 30q-117 51 -116 163t113 221
q-256 -20 -433 119t-177 403z" />
    <glyph glyph-name="uogonek" unicode="&#x173;" horiz-adv-x="1333" 
d="M1081 0q-115 0 -114 115v51l2 74h-4q-29 -86 -135 -175t-278 -89q-171 0 -252 98t-81 301v540h-184v115h323v-620q0 -146 44 -226t180 -80q170 0 275 132t106 305v374h-185v115h324v-872q0 -45 45 -45h117v-113h-11q-33 0 -101 -75t-69 -136t51 -88t85 -27l-31 -108
q-54 4 -112 30q-115 50 -115 172q0 123 139 232h-19z" />
    <glyph glyph-name="Wcircumflex" unicode="&#x174;" horiz-adv-x="2048" 
d="M35 1321v119h465v-119h-172l258 -1059l14 -94h8q6 49 19 94l329 1178h134l331 -1178l19 -94h8q4 49 14 94l258 1059h-172v119h465v-119h-147l-334 -1321h-170l-318 1133l-16 94h-8q-4 -51 -16 -94l-320 -1133h-168l-336 1321h-145zM770 1540l172 244h168l170 -244h-141
l-111 166h-4l-111 -166h-143z" />
    <glyph glyph-name="wcircumflex" unicode="&#x175;" horiz-adv-x="1742" 
d="M20 915v115h426v-115h-153l215 -692l16 -80h4q6 43 17 80l258 803h137l258 -803l16 -80h5q4 43 14 80l217 692h-154v115h426v-115h-133l-293 -915h-149l-254 772l-19 82h-6q-6 -45 -18 -82l-254 -772h-152l-292 915h-132zM621 1196l172 244h168l169 -244h-141l-110 166
h-5l-110 -166h-143z" />
    <glyph glyph-name="Ycircumflex" unicode="&#x176;" horiz-adv-x="1318" 
d="M406 1540l172 244h167l170 -244h-141l-110 166h-5l-110 -166h-143zM399 0v119h189v499l-424 703h-141v119h454v-119h-160l312 -524l28 -56h5q12 29 28 56l314 524h-160v119h452v-119h-141l-424 -703v-499h189v-119h-521z" />
    <glyph glyph-name="ycircumflex" unicode="&#x177;" horiz-adv-x="1175" 
d="M344 1196l172 244h168l170 -244h-141l-111 166h-4l-111 -166h-143zM266 -307q125 0 197 164l57 137l-368 921h-136v115h433v-115h-150l270 -702l17 -74h6q6 35 20 74l271 702h-150v115h426v-115h-135l-438 -1105q-45 -112 -127 -176t-189 -64q-51 0 -100 15t-72 30
l-22 16l53 111q59 -49 137 -49z" />
    <glyph glyph-name="Ydieresis" unicode="&#x178;" horiz-adv-x="1318" 
d="M403 1608v176h142v-176h-142zM778 1608v176h142v-176h-142zM399 0v119h189v499l-424 703h-141v119h454v-119h-160l312 -524l28 -56h5q12 29 28 56l314 524h-160v119h452v-119h-141l-424 -703v-499h189v-119h-521z" />
    <glyph glyph-name="Zacute" unicode="&#x179;" horiz-adv-x="1275" 
d="M117 0v100l790 1149l58 68v4q-39 -4 -80 -4h-629v-234h-129v357h1012v-101l-791 -1149l-57 -67v-4q39 4 80 4h657v239h129v-362h-1040zM561 1540l201 244h178l-231 -244h-148z" />
    <glyph glyph-name="zacute" unicode="&#x17a;" horiz-adv-x="1054" 
d="M242 915v-182h-127v297h827v-100l-612 -756l-54 -57v-4q39 2 80 2h465v182h127v-297h-848v98l613 758l53 57v5q-37 -2 -78 -3h-446zM446 1196l201 244h178l-231 -244h-148z" />
    <glyph glyph-name="Zdotaccent" unicode="&#x17b;" horiz-adv-x="1275" 
d="M588 1610v174h145v-174h-145zM117 0v100l790 1149l58 68v4q-39 -4 -80 -4h-629v-234h-129v357h1012v-101l-791 -1149l-57 -67v-4q39 4 80 4h657v239h129v-362h-1040z" />
    <glyph glyph-name="zdotaccent" unicode="&#x17c;" horiz-adv-x="1054" 
d="M473 1266v174h145v-174h-145zM242 915v-182h-127v297h827v-100l-612 -756l-54 -57v-4q39 2 80 2h465v182h127v-297h-848v98l613 758l53 57v5q-37 -2 -78 -3h-446z" />
    <glyph glyph-name="Zcaron" unicode="&#x17d;" horiz-adv-x="1275" 
d="M117 0v100l790 1149l58 68v4q-39 -4 -80 -4h-629v-234h-129v357h1012v-101l-791 -1149l-57 -67v-4q39 4 80 4h657v239h129v-362h-1040zM575 1540l-172 244h144l110 -164h5l110 164h141l-170 -244h-168z" />
    <glyph glyph-name="zcaron" unicode="&#x17e;" horiz-adv-x="1054" 
d="M242 915v-182h-127v297h827v-100l-612 -756l-54 -57v-4q39 2 80 2h465v182h127v-297h-848v98l613 758l53 57v5q-37 -2 -78 -3h-446zM463 1196l-172 244h143l111 -164h4l110 164h142l-170 -244h-168z" />
    <glyph glyph-name="longs" unicode="&#x17f;" horiz-adv-x="632" 
d="M614 1329q-219 0 -219 -244v-970h187v-115h-484v115h158v800h-168v115h168v53q0 92 26 163t61 108q93 96 253 96l84 -6v-121q-27 6 -66 6z" />
    <glyph glyph-name="florin" unicode="&#x192;" horiz-adv-x="964" 
d="M33 -94q51 0 85 9q158 42 179 255l51 578h-182v116h192l19 219q8 96 42 169t76 112q42 40 112 70t161 30l170 -14v-123q-94 14 -148 14q-244 0 -270 -264l-22 -213h258v-116h-267l-51 -584q-8 -96 -41 -169t-75 -112q-106 -100 -273 -100l-133 12v123q66 -12 117 -12z
" />
    <glyph glyph-name="Scommaaccent" unicode="&#x218;" horiz-adv-x="1159" 
d="M121 401h137v-104q0 -88 92 -139q92 -52 229 -52t227 69q89 69 89 192q0 154 -155 234q-87 46 -247 107q-161 61 -208 101q-98 86 -121 169q-14 50 -14 112q0 180 124 277t302 97t303 -61t125 -164v-154h-138v107q0 66 -86 104t-204 37q-118 0 -198 -61q-81 -61 -81 -160
t52 -159q52 -59 173 -109q29 -12 108 -42t123 -48q45 -18 109 -56q183 -109 180 -317q0 -186 -132 -296t-322 -110t-328 76q-139 76 -139 213v137zM655 -221q0 -141 -125 -223l-73 57q74 78 73 154q1 43 -22 106h131q16 -39 16 -94z" />
    <glyph glyph-name="scommaaccent" unicode="&#x219;" horiz-adv-x="962" 
d="M92 219v100h127v-73q0 -72 83 -111t185 -39t172 43t70 107t-40 105t-80 59t-128 51t-141 57q-142 66 -183 149q-26 50 -26 113q1 133 107 204t240 71q134 -1 243 -53t108 -148v-119h-127v76q0 55 -62 89t-151 34t-151 -39t-64 -101q0 -62 42 -105q42 -42 113 -73t156 -61
q156 -56 221 -123q66 -68 64 -166q0 -133 -108 -212t-271 -79q-163 -1 -281 65t-118 179zM563 -221q0 -141 -125 -223l-73 57q74 78 73 154q1 43 -22 106h131q16 -39 16 -94z" />
    <glyph glyph-name="uni021A" unicode="&#x21a;" horiz-adv-x="1339" 
d="M410 0v119h188v1198h-403v-234h-129v357h1208v-357h-131v234h-402v-1198h189v-119h-520zM625 -233q0 43 -23 106h131q16 -39 17 -94q0 -141 -125 -223l-74 57q74 78 74 154z" />
    <glyph glyph-name="uni021B" unicode="&#x21b;" horiz-adv-x="694" 
d="M221 375v540h-184v115h186v285h137v-285h261v-115h-261v-528q0 -169 89 -228q69 -46 145 -46l47 4v-121q-25 -4 -63 -4q-164 0 -265 98q-39 39 -65 113q-27 74 -27 172zM532 -221q0 -141 -124 -223l-74 57q74 78 74 154q0 43 -23 106h131q16 -39 16 -94z" />
    <glyph glyph-name="circumflex" unicode="&#x2c6;" horiz-adv-x="1032" 
d="M260 1540l172 244h168l170 -244h-141l-111 166h-4l-111 -166h-143z" />
    <glyph glyph-name="caron" unicode="&#x2c7;" horiz-adv-x="1032" 
d="M432 1540l-172 244h143l111 -164h4l111 164h141l-170 -244h-168z" />
    <glyph glyph-name="breve" unicode="&#x2d8;" horiz-adv-x="1034" 
d="M516 1534q-100 0 -170 57t-70 162v31h121v-27q0 -61 34 -92t85 -31t86 31t35 92v27h121v-31q0 -103 -71 -161t-171 -58z" />
    <glyph glyph-name="dotaccent" unicode="&#x2d9;" horiz-adv-x="1034" 
d="M444 1610v174h146v-174h-146z" />
    <glyph glyph-name="ring" unicode="&#x2da;" horiz-adv-x="1034" 
d="M517 1589q33 1 55 21t22 55t-22 57t-56 21q-34 0 -52 -22q-20 -23 -20 -57t20 -54t53 -21zM517 1507q-71 0 -120 44t-49 114t49 115t121 45t122 -45t50 -115t-51 -114t-122 -44z" />
    <glyph glyph-name="ogonek" unicode="&#x2db;" horiz-adv-x="1032" 
d="M365 -232q0 64 56 146t138 123h98v-37q-33 0 -101 -74t-69 -136t51 -89t85 -27l-31 -108q-54 4 -125 36q-102 43 -102 166z" />
    <glyph glyph-name="tilde" unicode="&#x2dc;" horiz-adv-x="1032" 
d="M190 1546q0 240 191 240q63 0 111 -36t80 -72q34 -36 69 -36q84 0 84 138h117q0 -240 -191 -240q-51 0 -91 23t-62 49q-60 71 -107 69q-82 0 -82 -135h-119z" />
    <glyph glyph-name="hungarumlaut" unicode="&#x2dd;" horiz-adv-x="1032" 
d="M227 1540l133 244h144l-137 -244h-140zM500 1540l143 244h164l-176 -244h-131z" />
    <glyph glyph-name="uni1E9E" unicode="&#x1e9e;" horiz-adv-x="1443" 
d="M82 0v119h188v930q0 167 113 279t281 112h567v-99l-289 -446l-33 -43v-4q184 -27 304 -128t120 -291q0 -191 -143 -317t-397 -126q-88 0 -138 10t-53 10v129q135 -23 180 -22q193 0 299 87t107 232q0 276 -428 313v86l274 437l37 45v4q-27 -4 -53 -4h-344
q-113 0 -187 -76t-73 -186v-1051h-332z" />
    <glyph glyph-name="thinspace" unicode="&#x2009;" horiz-adv-x="555" 
 />
    <glyph glyph-name="endash" unicode="&#x2013;" horiz-adv-x="1462" 
d="M219 522v119h1024v-119h-1024z" />
    <glyph glyph-name="emdash" unicode="&#x2014;" horiz-adv-x="1871" 
d="M219 522v119h1434v-119h-1434z" />
    <glyph glyph-name="quoteleft" unicode="&#x2018;" horiz-adv-x="446" 
d="M111 1042l133 416h110l-96 -416h-147z" />
    <glyph glyph-name="quoteright" unicode="&#x2019;" horiz-adv-x="438" 
d="M117 1042l96 416h147l-131 -416h-112z" />
    <glyph glyph-name="quotesinglbase" unicode="&#x201a;" horiz-adv-x="481" 
d="M84 -250l96 418h146l-131 -418h-111z" />
    <glyph glyph-name="quotedblleft" unicode="&#x201c;" horiz-adv-x="708" 
d="M373 1042l131 416h112l-96 -416h-147zM111 1042l133 416h110l-96 -416h-147z" />
    <glyph glyph-name="quotedblright" unicode="&#x201d;" horiz-adv-x="698" 
d="M117 1042l96 416h147l-131 -416h-112zM379 1042l94 416h150l-134 -416h-110z" />
    <glyph glyph-name="quotedblbase" unicode="&#x201e;" horiz-adv-x="739" 
d="M84 -250l96 418h146l-131 -418h-111zM342 -250l96 418h146l-131 -418h-111z" />
    <glyph glyph-name="dagger" unicode="&#x2020;" horiz-adv-x="815" 
d="M336 -102v1013h-240v119h240v410h135v-410h250v-119h-250v-1013h-135z" />
    <glyph glyph-name="daggerdbl" unicode="&#x2021;" horiz-adv-x="837" 
d="M106 367v118h240v426h-240v119h240v410h135v-410h250v-119h-250v-426h250v-118h-250v-469h-135v469h-240z" />
    <glyph glyph-name="bullet" unicode="&#x2022;" horiz-adv-x="825" 
d="M414 303q-121 0 -207 86t-86 207t86 207t207 86t206 -86t85 -207t-85 -207t-206 -86z" />
    <glyph glyph-name="ellipsis" unicode="&#x2026;" horiz-adv-x="1458" 
d="M166 0v170h164v-170h-164zM647 0v170h164v-170h-164zM1128 0v170h164v-170h-164z" />
    <glyph glyph-name="perthousand" unicode="&#x2030;" horiz-adv-x="2148" 
d="M932 259q0 -71 47 -120t117 -49t118 49t50 120q0 71 -50 121t-118 50q-70 0 -117 -50t-47 -121zM1620 259q0 -71 48 -120t118 -49t118 49t48 120t-48 121t-118 50t-118 -50t-48 -121zM809 259q0 118 84 202t203 84q120 0 204 -84t84 -202t-85 -201t-203 -83t-203 83
q-84 83 -84 201zM1499 259q0 118 84 202t203 84t204 -84t85 -202t-85 -201t-204 -83t-203 83t-84 201zM403 1010q70 0 119 49t49 120t-49 121t-119 50q-71 0 -117 -50t-46 -122q0 -70 46 -119t117 -49zM131 0l1096 1440h147l-1098 -1440h-145zM404 895q-120 0 -204 83
t-83 201q0 117 84 201q85 84 203 84t203 -84t85 -202t-84 -200q-84 -83 -204 -83z" />
    <glyph glyph-name="guilsinglleft" unicode="&#x2039;" horiz-adv-x="710" 
d="M436 158l-336 420l336 421h152l-336 -421l336 -420h-152z" />
    <glyph glyph-name="guilsinglright" unicode="&#x203a;" horiz-adv-x="710" 
d="M123 158l336 420l-336 421h151l336 -421l-336 -420h-151z" />
    <glyph glyph-name="fraction" unicode="&#x2044;" horiz-adv-x="305" 
d="M-252 0l688 1440h119l-686 -1440h-121z" />
    <glyph glyph-name="zerosuperior" unicode="&#x2070;" horiz-adv-x="866" 
d="M432 952q197 0 197 360t-197 361q-197 -1 -197 -361t197 -360zM433 846q-312 0 -312 466t312 466t312 -466t-312 -466z" />
    <glyph glyph-name="foursuperior" unicode="&#x2074;" horiz-adv-x="872" 
d="M223 1198h301v330l8 88h-6q-18 -41 -43 -74l-260 -340v-4zM524 866v236h-432v76l434 579h111v-559h133v-96h-133v-236h-113z" />
    <glyph glyph-name="fivesuperior" unicode="&#x2075;" horiz-adv-x="825" 
d="M395 846q-81 0 -151 33t-101 65l-28 33l73 72q8 -11 24 -27t68 -44q54 -28 126 -28t132 56q62 56 62 140q0 83 -61 140t-145 57t-144 -36l-19 -13l-69 25l51 438h453v-209h-103v113h-256l-16 -172l-12 -78h4q51 27 123 27q133 0 221 -85t88 -208q1 -123 -91 -211
t-229 -88z" />
    <glyph glyph-name="sixsuperior" unicode="&#x2076;" horiz-adv-x="845" 
d="M437 952q85 0 132 58t47 143q0 86 -51 139q-51 54 -131 54t-139 -43t-59 -93q0 -92 58 -175t143 -83zM430 846q-135 0 -224 115t-89 299t90 343q45 79 123 127t171 48t165 -31l22 -10l-45 -97q-63 33 -133 33q-110 0 -180 -90t-90 -223h4q33 36 88 58t108 22
q129 0 210 -80t81 -215t-83 -217t-218 -82z" />
    <glyph glyph-name="sevensuperior" unicode="&#x2077;" horiz-adv-x="585" 
d="M475 1661h-321v-113h-101v209h600v-76l-413 -815h-121l377 752l28 43v4q-25 -4 -49 -4z" />
    <glyph glyph-name="eightsuperior" unicode="&#x2078;" horiz-adv-x="839" 
d="M223 1134q1 -90 61 -138t135 -48t133 45t58 111t-55 103t-123 67q-67 30 -92 41q-117 -91 -117 -181zM594 1538q0 66 -50 102t-118 35q-68 0 -116 -34t-48 -101t78 -115q44 -26 97 -48q53 -23 67 -29q90 90 90 190zM727 1111q0 -117 -89 -191t-215 -74t-219 74t-93 200
q-1 58 31 114t61 82t57 44q-110 76 -110 186t81 171q82 61 195 61t197 -62t84 -179q0 -116 -117 -232q137 -76 137 -194z" />
    <glyph glyph-name="ninesuperior" unicode="&#x2079;" horiz-adv-x="827" 
d="M409 1278q83 0 138 44t55 117t-60 153t-144 81q-84 0 -129 -57q-46 -57 -46 -144t51 -141q52 -53 135 -53zM332 952q104 0 176 91t90 223h-4q-78 -82 -203 -82t-204 82t-78 215q0 133 81 215q82 82 218 82t226 -115t89 -297q0 -282 -169 -436q-91 -84 -202 -84t-180 33
l-20 10l43 96q63 -33 137 -33z" />
    <glyph glyph-name="zeroinferior" unicode="&#x2080;" horiz-adv-x="811" 
d="M406 -236q196 0 196 360t-196 361q-196 -1 -197 -361q0 -360 197 -360zM407 -342q-313 0 -313 466t312 466t313 -466q0 -466 -312 -466z" />
    <glyph glyph-name="oneinferior" unicode="&#x2081;" horiz-adv-x="653" 
d="M78 -322v99h213v579l6 64h-4q-10 -16 -33 -39l-113 -109l-73 76l225 221h107v-792h208v-99h-536z" />
    <glyph glyph-name="twoinferior" unicode="&#x2082;" horiz-adv-x="741" 
d="M74 -248q0 88 46 159t111 118q67 47 131 89q156 102 156 210q0 66 -47 112t-107 45q-60 1 -107 -25q-46 -26 -69 -50l-20 -25l-74 72q10 14 30 37q20 24 90 60q69 36 144 36q127 0 202 -73t75 -170q0 -169 -155 -272q-66 -44 -130 -84q-155 -96 -160 -214h361v112h100
v-211h-571q-6 45 -6 74z" />
    <glyph glyph-name="threeinferior" unicode="&#x2083;" horiz-adv-x="751" 
d="M104 358v209h549v-73l-247 -289q102 -10 180 -75q78 -64 78 -184t-88 -205t-218 -85q-88 0 -160 34t-102 68l-28 33l71 76q7 -11 23 -29t74 -48t126 -30q70 0 128 52t59 131q-1 78 -61 125t-140 47h-65l-29 63l215 254l43 41v4q-25 -6 -57 -6h-248v-113h-103z" />
    <glyph glyph-name="fourinferior" unicode="&#x2084;" horiz-adv-x="780" 
d="M178 10h301v330l8 88h-6q-18 -41 -43 -74l-260 -340v-4zM479 -322v236h-432v76l434 579h111v-559h133v-96h-133v-236h-113z" />
    <glyph glyph-name="fiveinferior" unicode="&#x2085;" horiz-adv-x="741" 
d="M344 -342q-82 0 -152 33t-98 65l-31 33l74 72q7 -11 23 -27t69 -44t125 -28t133 56t61 140q0 83 -60 140q-62 57 -150 58q-41 0 -81 -12t-58 -25l-19 -13l-69 25l51 438h452v-209h-102v113h-256l-16 -172l-13 -78h4q51 27 123 27q133 0 221 -85q89 -85 89 -208t-92 -211
t-228 -88z" />
    <glyph glyph-name="sixinferior" unicode="&#x2086;" horiz-adv-x="776" 
d="M409 -236q85 0 132 58t47 143q0 86 -51 139q-51 54 -131 54t-140 -43q-59 -43 -59 -92q0 -92 58 -176q59 -83 144 -83zM402 -342q-135 0 -225 115q-89 115 -89 298t90 344q45 79 123 127t175 48t161 -31l22 -10l-45 -96q-63 33 -133 32q-109 0 -179 -90t-91 -223h4
q33 36 88 58t109 22q129 0 210 -80q80 -80 80 -215t-82 -217t-218 -82z" />
    <glyph glyph-name="seveninferior" unicode="&#x2087;" horiz-adv-x="706" 
d="M489 471h-321v-113h-100v209h600v-75l-414 -816h-121l377 752l29 43v4q-25 -4 -50 -4z" />
    <glyph glyph-name="eightinferior" unicode="&#x2088;" horiz-adv-x="790" 
d="M394 -238q75 0 133 45q59 45 59 110t-54 102t-123 68q-69 30 -94 42q-117 -90 -116 -190q0 -81 60 -129t135 -48zM569 352q0 66 -50 102t-118 36q-67 0 -115 -34t-48 -103t77 -113q52 -30 101 -51l63 -27q90 90 90 190zM702 -75q0 -117 -89 -191t-215 -74t-219 74
t-93 200q0 58 32 114t60 82q29 26 58 44q-111 76 -111 186t82 171q83 61 195 61t196 -62t84 -179q0 -116 -117 -232q137 -76 137 -194z" />
    <glyph glyph-name="nineinferior" unicode="&#x2089;" horiz-adv-x="776" 
d="M188 284q0 -86 52 -140t134 -54q83 0 138 44t55 117t-60 153q-59 80 -143 81q-84 0 -130 -57t-46 -144zM297 -236q104 0 176 92t90 222h-4q-78 -82 -203 -82q-126 0 -204 82t-78 215t82 215t218 82t224 -115q90 -115 90 -297q0 -280 -169 -436q-91 -84 -204 -84t-176 33
l-22 10l43 96q63 -33 137 -33z" />
    <glyph glyph-name="Euro" unicode="&#x20ac;" horiz-adv-x="1220" 
d="M96 526v103h111q-10 117 2 207h-113v102h131q61 234 247 380t437 146q98 0 170 -18l23 -6l-33 -129q-76 23 -162 22q-195 -1 -336 -109t-194 -286h625l-21 -102h-627q-12 -96 -2 -207h592l-20 -103h-549q49 -188 192 -304t342 -116q85 0 162 21l23 8l30 -129
q-92 -31 -215 -31q-260 0 -446 154t-242 397h-127z" />
    <glyph glyph-name="trademark" unicode="&#x2122;" horiz-adv-x="1933" 
d="M381 543v790h-320v107h756v-107h-319v-790h-117zM893 543l72 897h104l238 -514l28 -84h4q10 45 29 84l236 514h104l72 -897h-115l-49 608l2 59h-4l-230 -499h-96l-229 499h-4l2 -59l-49 -608h-115z" />
    <glyph glyph-name="minus" unicode="&#x2212;" horiz-adv-x="1241" 
d="M102 522v119h1037v-119h-1037z" />
    <glyph glyph-name="infinity" unicode="&#x221e;" horiz-adv-x="952" 
d="M478 360q-146 0 -250 104t-105 252q0 146 103 248q102 102 250 103q148 0 250 -102q102 -101 103 -249q-1 -148 -103 -252t-248 -104z" />
    <glyph glyph-name="approxequal" unicode="&#x2248;" horiz-adv-x="1241" 
d="M420 532q102 0 220 -72t185 -71q121 0 232 115l67 -90q-137 -141 -299 -142q-102 0 -220 72t-185 72q-123 0 -232 -113l-67 88q137 141 299 141zM420 889q102 0 220 -72t185 -72q123 0 232 113l67 -88q-137 -141 -299 -141q-102 -1 -220 71t-185 72q-121 0 -232 -115
l-67 91q137 141 299 141z" />
    <glyph glyph-name="notequal" unicode="&#x2260;" horiz-adv-x="1241" 
d="M141 344v119h326l176 237h-502v119h584l176 238l86 -60l-133 -178h242v-119h-324l-176 -237h500v-119h-582l-172 -233l-86 59l127 174h-242z" />
    <glyph glyph-name="lessequal" unicode="&#x2264;" horiz-adv-x="1241" 
d="M137 -213h924v-119h-924v119zM135 530v103l926 414v-138l-752 -325v-4l752 -326v-137z" />
    <glyph glyph-name="greaterequal" unicode="&#x2265;" horiz-adv-x="1241" 
d="M176 -213h924v-119h-924v119zM178 117v137l752 326v4l-752 325v138l926 -414v-103z" />
    <glyph glyph-name="commaaccent" horiz-adv-x="686" 
d="M426 -221q0 -141 -125 -223l-74 57q74 78 74 154q1 43 -22 106h131q16 -39 16 -94z" />
    <glyph glyph-name="apple" horiz-adv-x="2314" 
d="M907 186h123v445h447v108h-447v367h361q33 0 44 -12t11 -43v-78h115v131q0 59 -26 86t-89 27h-666v-111h127v-920zM496 131v248l-203 123v461l203 118v252l440 234l225 -121l219 121l439 -234v-252l204 -118v-461l-204 -123v-248l-439 -233l-219 118l-225 -118zM426 61
l487 -258l248 136l242 -136l487 258v285l234 131v510l-234 135v279l-487 258l-242 -131l-248 131l-487 -258v-279l-233 -135v-510l233 -131v-285zM344 -10v311l-258 148v569l258 145v310l543 290l274 -145l271 145l542 -290v-310l254 -145v-569l-254 -148v-311l-542 -289
l-271 145l-274 -145z" />
    <glyph glyph-name="zero.tnum" 
d="M578 106q199 0 278 180q70 156 72 435q0 612 -349 612q-349 1 -349 -613t348 -614zM579 -25q-497 1 -497 745t496 744q180 0 294 -102t159 -262q44 -160 44 -379q1 -746 -496 -746z" />
    <glyph glyph-name="one.tnum" 
d="M217 0v123h322v1061l2 80h-4q-14 -31 -72 -86l-154 -152l-90 90l326 324h133v-1317h315v-123h-778z" />
    <glyph glyph-name="two.tnum" 
d="M96 92q0 119 56 219q55 100 137 167q82 66 179 136t179 128t137 140q56 82 56 190q0 106 -83 184t-210 77q-127 0 -209 -67t-109 -111l-14 -20l-102 69q6 10 16 28t49 62q39 45 85 80t123 63t163 27q199 0 319 -114t119 -289q0 -133 -76 -242q-77 -109 -185 -185
t-216 -148q-260 -177 -260 -363h674v201h131v-324h-951q-8 43 -8 92z" />
    <glyph glyph-name="three.tnum" 
d="M526 729q-53 0 -75 -4h-15l-37 86l389 461l50 45v4q-41 -4 -68 -4h-481v-197h-131v320h852v-101l-426 -493q152 -8 287 -95q71 -46 114 -130t43 -195q0 -186 -136 -318t-339 -133q-158 0 -277 66q-118 66 -161 111l-19 20l86 104q16 -18 47 -47t127 -75t212 -48
q116 0 214 90t98 230q0 139 -102 221q-104 82 -252 82z" />
    <glyph glyph-name="four.tnum" 
d="M203 520h551v649l8 95h-6q-20 -43 -47 -80l-506 -660v-4zM35 399v93l706 948h154v-920h205v-121h-205v-399h-141v399h-719z" />
    <glyph glyph-name="five.tnum" 
d="M530 786q-70 0 -138 -20t-99 -41l-33 -20l-90 32l78 703h702v-320h-129v197h-450l-47 -406l-11 -57h4q94 55 234 55q209 0 348 -131q139 -132 139 -328t-146 -335t-352 -139t-365 119q-36 28 -52 48l-17 19l87 100q11 -16 48 -49q119 -104 279 -106q160 -1 265 99
t105 244q0 146 -99 241q-100 95 -261 95z" />
    <glyph glyph-name="six.tnum" 
d="M256 541q0 -152 104 -293q104 -142 254 -142t234 98t84 252q0 156 -90 248t-236 92t-248 -79q-102 -80 -102 -176zM623 -25q-236 -1 -378 189t-143 483q0 239 101 457t298 310q108 50 207 50q164 0 263 -45l30 -14l-53 -123q-90 51 -222 51t-240 -88q-199 -162 -228 -491
h4q54 78 154 123t215 45q195 0 321 -130t127 -342q-1 -212 -131 -344t-325 -131z" />
    <glyph glyph-name="seven.tnum" 
d="M848 1317h-602v-197h-129v320h964v-99l-667 -1341h-148l619 1253l39 64v4q-35 -4 -76 -4z" />
    <glyph glyph-name="eight.tnum" 
d="M238 416q0 -136 102 -224t236 -88t235 81q100 81 100 206q0 154 -237 253q-108 45 -230 99q-206 -137 -206 -327zM293 1100q0 -128 143 -209q92 -54 295 -135q154 154 154 323q0 119 -83 188t-217 69t-213 -68t-79 -168zM150 1089q0 163 113 269q114 106 318 106
q205 0 325 -102t120 -268q0 -94 -45 -192t-76 -137q-31 -38 -57 -65q211 -121 211 -301t-136 -302t-340 -122q-203 1 -347 121t-144 301t109 295q80 83 131 115q-182 119 -182 282z" />
    <glyph glyph-name="nine.tnum" 
d="M542 1333q-148 0 -232 -98t-85 -250q0 -152 90 -244q91 -92 235 -92t248 79q103 79 103 173q0 152 -106 292q-105 140 -253 140zM526 524q-196 0 -322 129t-126 339t131 341t326 131q233 0 376 -189t143 -483t-148 -543q-74 -122 -200 -198t-288 -76q-70 1 -136 15
t-96 30l-30 15l53 123q90 -51 209 -52q211 0 336 174t145 408h-4q-53 -74 -155 -119t-214 -45z" />
    <glyph glyph-name="hyphen.case" horiz-adv-x="999" 
d="M209 651v127h582v-127h-582z" />
    <glyph glyph-name="parenleft.case" horiz-adv-x="618" 
d="M154 752q0 428 231 804h131q-231 -387 -231 -804q0 -473 231 -885h-131q-231 397 -231 885z" />
    <glyph glyph-name="parenright.case" horiz-adv-x="616" 
d="M102 -133q231 416 232 885q0 414 -232 804h129q231 -377 232 -804q0 -487 -232 -885h-129z" />
    <glyph glyph-name="bracketleft.case" horiz-adv-x="606" 
d="M211 -133v1689h276v-114h-147v-1460h147v-115h-276z" />
    <glyph glyph-name="bracketright.case" horiz-adv-x="604" 
d="M115 -18h149v1460h-149v114h278v-1689h-278v115z" />
    <glyph glyph-name="braceleft.case" horiz-adv-x="653" 
d="M248 231v195q0 94 -44 152t-87 69l-43 12v127q16 0 53 18t61 42q59 57 60 176v168q0 96 24 168q25 72 59 108q83 90 222 90h31v-114h-19q-58 0 -103 -31q-85 -60 -85 -225v-201q0 -114 -54 -174t-94 -78l-16 -8v-4q21 -7 53 -29q108 -73 111 -231v-225q0 -168 76 -219
q54 -37 112 -37h19v-115q-12 -2 -38 -2q-128 0 -215 92q-35 37 -59 109t-24 167z" />
    <glyph glyph-name="braceright.case" horiz-adv-x="655" 
d="M70 -20h20q57 0 112 37q77 54 77 219v225q0 120 56 181q56 60 107 79v4q-22 7 -54 32q-109 83 -109 228v201q0 162 -77 218q-54 38 -112 38h-20v114h32q140 0 223 -90q35 -36 59 -108t24 -168v-168q0 -96 44 -154t87 -69l43 -13v-127q-19 0 -55 -18q-35 -18 -59 -41
t-42 -69t-18 -105v-195q0 -96 -25 -168q-25 -73 -59 -109q-84 -92 -222 -91l-32 2v115z" />
    <glyph glyph-name="at.case" horiz-adv-x="1540" 
d="M934 1001q-121 -1 -201 -83t-80 -200t80 -199t197 -81h254v563h-250zM94 718q0 314 213 533t514 219q260 0 381 -110t121 -277v-645h145v-114h-550q-174 0 -291 116t-117 277t117 277t291 116h266q-4 102 -92 171t-261 69q-251 0 -423 -186t-172 -447t173 -443t433 -182
v-123q-317 0 -533 217q-215 218 -215 532z" />
    <glyph glyph-name="guillemotleft.case" horiz-adv-x="1081" 
d="M436 281l-336 419l336 422h152l-336 -422l336 -419h-152zM805 281l-336 419l336 422h151l-335 -422l335 -419h-151z" />
    <glyph glyph-name="guillemotright.case" horiz-adv-x="1081" 
d="M125 281l336 419l-336 422h151l336 -422l-336 -419h-151zM494 281l335 419l-335 422h151l336 -422l-336 -419h-151z" />
    <glyph glyph-name="guilsinglleft.case" horiz-adv-x="712" 
d="M436 281l-336 419l336 422h152l-336 -422l336 -419h-152z" />
    <glyph glyph-name="guilsinglright.case" horiz-adv-x="712" 
d="M125 281l336 419l-336 422h151l336 -422l-336 -419h-151z" />
    <glyph glyph-name="endash.case" horiz-adv-x="1445" 
d="M211 645v119h1024v-119h-1024z" />
    <glyph glyph-name="emdash.case" horiz-adv-x="1855" 
d="M211 645v119h1434v-119h-1434z" />
    <glyph glyph-name="periodcentered.case" horiz-adv-x="550" 
d="M193 625v170h165v-170h-165z" />
    <glyph glyph-name="questiondown.case" horiz-adv-x="892" 
d="M440 977v86h138v-92q0 -90 -37 -164t-89 -124t-106 -98q-128 -114 -127 -241q0 -100 76 -168t194 -67q61 -1 123 21t93 42l30 23l78 -103q-14 -12 -41 -32t-113 -52q-86 -33 -176 -33q-177 -1 -293 101t-116 268t130 289q54 51 107 98q129 114 129 246zM428 1278v162h162
v-162h-162z" />
    <glyph glyph-name="exclamdown.case" horiz-adv-x="585" 
d="M221 0l6 1063h131l7 -1063h-144zM211 1278v162h160v-162h-160z" />
    <glyph glyph-name="bullet.case" horiz-adv-x="819" 
d="M410 428q-121 0 -207 86t-86 207t86 207t207 86q120 0 206 -86t86 -207t-86 -207t-206 -86z" />
    <glyph glyph-name="zero.p_osf" horiz-adv-x="1220" 
d="M610 1012q-162 0 -250 -136t-88 -320q0 -185 88 -320q88 -136 250 -136t251 136t89 320t-89 320t-251 136zM129 554q0 237 126 410t355 173q230 0 356 -173t126 -411t-125 -408t-357 -170t-356 171q-125 171 -125 408z" />
    <glyph glyph-name="one.p_osf" horiz-adv-x="915" 
d="M129 0v119h317v741l3 109h-5q-31 -27 -77 -56l-215 -129l-66 99l369 229h129v-993h284v-119h-739z" />
    <glyph glyph-name="two.p_osf" horiz-adv-x="1110" 
d="M139 0v98q348 233 504 386t156 294q0 115 -79 174q-79 60 -200 60t-258 -102q-31 -24 -45 -40l-16 -16l-80 92q17 23 65 61q160 127 352 129t298 -100t106 -241q0 -172 -140 -327t-448 -351v-4q41 6 117 6h524v-119h-856z" />
    <glyph glyph-name="three.p_osf" horiz-adv-x="1042" 
d="M678 997h-438v-184h-125v299h805v-92l-420 -467q121 -4 205 -44q83 -40 129 -82t76 -111t30 -154q0 -186 -133 -305t-334 -119q-155 0 -261 61q-107 61 -144 103l-17 20l84 96q6 -9 47 -45q123 -110 271 -110q149 0 246 82t97 215t-102 207t-252 73l-90 -6l-35 88
l379 428l49 47v4q-41 -4 -67 -4z" />
    <glyph glyph-name="four.p_osf" horiz-adv-x="1169" 
d="M741 195v649l7 94h-5q-23 -43 -47 -80l-483 -663h528zM51 78v90l676 944h154v-917h219v-117h-219v-316h-140v316h-690z" />
    <glyph glyph-name="five.p_osf" horiz-adv-x="1046" 
d="M455 -119q145 0 251 84q105 83 105 229t-104 227t-246 81q-65 0 -131 -18t-99 -35l-32 -19l-86 31l77 651h682v-299h-127v184h-436l-41 -344l-12 -80h4q92 49 227 50q195 0 331 -114q136 -113 136 -311t-141 -320t-343 -122t-352 110q-34 26 -48 44l-17 16l86 90
q12 -14 36 -36t106 -61q82 -38 174 -38z" />
    <glyph glyph-name="six.p_osf" horiz-adv-x="1185" 
d="M268 508q0 -144 106 -276t254 -132q150 0 233 90t83 234t-89 229q-89 86 -233 86q-144 1 -250 -73q-104 -74 -104 -158zM736 1249q-132 0 -239 -84q-200 -156 -229 -471h4q54 78 154 122t213 44q199 0 324 -120t125 -318t-130 -323q-129 -124 -323 -124q-231 0 -374 173
q-142 174 -142 450t146 514q73 117 198 190t282 72q72 0 139 -13t97 -28l31 -14l-54 -117q-90 47 -222 47z" />
    <glyph glyph-name="seven.p_osf" horiz-adv-x="1038" 
d="M758 997h-551v-184h-125v299h907v-92l-637 -1258h-149l592 1172l39 63v4q-33 -4 -76 -4z" />
    <glyph glyph-name="eight.p_osf" horiz-adv-x="1183" 
d="M258 393q0 -131 99 -212t233 -81t231 76q99 76 99 185t-102 173q-76 48 -191 95t-156 65q-213 -127 -213 -301zM313 1030q0 -116 138 -192q51 -29 153 -70q101 -41 129 -53q67 52 112 142q46 89 46 161q0 106 -82 168t-212 63q-130 -1 -207 -63t-77 -156zM115 396
q0 194 243 360q-184 106 -184 276q0 140 112 242t310 102t316 -97t118 -255q0 -88 -46 -179t-80 -128t-56 -58q215 -113 215 -283t-134 -286q-134 -115 -335 -115t-340 113q-139 114 -139 308z" />
    <glyph glyph-name="nine.p_osf" horiz-adv-x="1171" 
d="M548 373q144 0 249 73q104 74 104 158q0 144 -104 276q-105 132 -255 132t-234 -90t-83 -234q0 -144 89 -229q90 -86 234 -86zM416 -137q224 0 345 169t142 386h-4q-53 -78 -155 -122t-214 -44q-198 0 -322 120t-124 318t128 323q128 124 323 124q233 0 375 -173
t143 -446q0 -221 -100 -434q-100 -212 -295 -298q-108 -48 -207 -48q-165 0 -263 41l-30 14l53 117q90 -47 205 -47z" />
    <glyph glyph-name="zero.t_osf" 
d="M578 1012q-162 0 -250 -136t-88 -320q0 -185 88 -320q88 -136 250 -136t250 136t90 320q0 184 -90 320q-88 136 -250 136zM96 554q0 237 126 410t356 173t355 -173q126 -173 126 -411t-125 -408t-356 -170t-357 171q-125 171 -125 408z" />
    <glyph glyph-name="one.t_osf" 
d="M250 0v119h317v741l2 109h-4q-31 -27 -78 -56l-215 -129l-65 99l368 229h130v-993h284v-119h-739z" />
    <glyph glyph-name="two.t_osf" 
d="M162 0v98q348 233 504 386t155 294q0 115 -79 174q-79 60 -201 60t-256 -102q-31 -24 -47 -40l-15 -16l-80 92q15 20 64 60q49 38 95 64q116 65 283 66q167 2 273 -100t107 -241q-1 -172 -141 -327t-447 -351v-4q41 6 117 6h524v-119h-856z" />
    <glyph glyph-name="three.t_osf" 
d="M854 160q0 133 -102 207t-252 73l-90 -6l-35 88l379 428l49 47v4q-41 -4 -68 -4h-438v-184h-125v299h805v-92l-420 -467q202 -7 335 -126q46 -42 76 -111t29 -154q0 -186 -133 -305t-334 -119q-155 0 -261 61q-107 61 -144 103l-16 20l84 96q8 -12 48 -47
q123 -108 271 -108q147 0 245 82q97 82 97 215z" />
    <glyph glyph-name="four.t_osf" 
d="M735 195v649l6 94h-4q-23 -43 -47 -80l-483 -663h528zM45 78v90l676 944h153v-917h220v-117h-220v-316h-139v316h-690z" />
    <glyph glyph-name="five.t_osf" 
d="M510 -119q145 0 251 84q105 83 105 229t-104 227t-246 81q-66 0 -132 -18t-97 -35l-33 -19l-86 31l78 651h682v-299h-127v184h-436l-41 -344l-13 -80h4q92 49 228 50q195 0 331 -114q136 -113 136 -311t-142 -320t-343 -122q-202 0 -352 110q-34 26 -50 44l-14 16l86 90
q11 -14 35 -36t106 -61q82 -38 174 -38z" />
    <glyph glyph-name="six.t_osf" 
d="M254 508q0 -144 105 -276t255 -132t233 90t83 234t-89 229q-89 86 -233 86t-250 -73q-104 -74 -104 -158zM722 1249q-132 0 -240 -84q-199 -155 -228 -471h4q54 78 154 122t213 44q199 0 323 -120t125 -318q0 -198 -129 -323q-129 -124 -323 -124q-231 -1 -374 173
t-143 451t147 513q73 117 198 190t282 72q73 0 139 -13t97 -28l30 -14l-53 -117q-90 47 -222 47z" />
    <glyph glyph-name="seven.t_osf" 
d="M817 997h-551v-184h-125v299h908v-92l-637 -1258h-150l592 1172l39 63v4q-33 -4 -76 -4z" />
    <glyph glyph-name="eight.t_osf" 
d="M244 393q0 -131 99 -212t233 -81t231 76q98 76 98 185t-101 173q-76 48 -191 95t-156 65q-213 -127 -213 -301zM299 1030q0 -117 137 -192q53 -30 154 -71q101 -40 129 -52q67 52 112 142q46 89 46 161q0 106 -82 168t-212 63q-130 -1 -207 -63t-77 -156zM1049 376
q-1 -170 -135 -286q-134 -115 -334 -115t-340 113q-140 114 -140 308t244 360q-184 106 -184 276q0 141 111 243q112 101 310 101q199 0 317 -97t118 -255q0 -88 -46 -179t-80 -128t-56 -58q215 -113 215 -283z" />
    <glyph glyph-name="nine.t_osf" 
d="M540 373q144 -1 248 73t105 158q-1 144 -105 276t-254 132t-234 -90q-83 -90 -83 -234t89 -229q90 -86 234 -86zM408 -137q222 0 344 169t143 386h-4q-53 -78 -155 -122t-214 -44q-198 0 -322 120t-124 318t128 323q128 124 322 124q234 0 376 -173t142 -446
q0 -223 -100 -434t-294 -298q-108 -48 -207 -48q-165 0 -263 41l-30 14l53 117q90 -47 205 -47z" />
    <glyph glyph-name="dollar.osf" horiz-adv-x="978" 
d="M526 123q86 0 158 52t72 135t-67 131t-162 78t-190 65q-95 34 -162 108t-67 199t95 199q94 74 241 88v196h115v-194q92 -8 168 -37t107 -53l30 -23l-61 -106q-40 33 -130 64q-91 30 -188 30t-167 -42t-70 -127t66 -137t162 -83q94 -31 190 -65q96 -33 162 -103t67 -190
q0 -120 -96 -210q-96 -88 -252 -98v-211h-115v211q-98 12 -189 56t-132 83l-43 39l77 101l17 -17q140 -139 364 -139z" />
    <glyph glyph-name="cent.osf" horiz-adv-x="1067" 
d="M68 610q0 199 123 334q124 135 317 160v176h119v-172q100 -6 186 -46t121 -75l37 -37l-68 -108q-9 14 -46 43q-120 96 -273 96q-154 0 -265 -103q-111 -104 -111 -266t112 -266q110 -104 274 -104q88 0 166 34t110 70l33 35l68 -109q-14 -16 -40 -41t-116 -69t-188 -49
v-166h-119v170q-195 25 -318 159q-122 135 -122 334z" />
    <glyph glyph-name="sterling.osf" horiz-adv-x="1179" 
d="M92 0v123h174v379h-137v106h137v217q0 160 123 269t311 108q90 0 174 -26t123 -54l39 -26l-75 -107q-113 84 -255 84t-221 -75q-80 -75 -79 -181v-209h473v-106h-473v-379h694v-123h-1008z" />
    <glyph glyph-name="yen.osf" horiz-adv-x="1169" 
d="M174 573v105h213l-307 504h162l254 -428l88 -170h4q43 94 88 170l252 428h162l-306 -504h211v-105h-274l-66 -108v-55h340v-105h-340v-305h-141v305h-340v105h340v55l-65 108h-275z" />
    <glyph glyph-name="florin.osf" horiz-adv-x="1148" 
d="M253 -94q91 54 105 221l48 524h-185v117h193l20 225q8 96 41 170t74 113q41 40 111 70t154 30t153 -12l24 -2v-125q-91 14 -147 14t-90 -9t-74 -34q-91 -56 -107 -221l-20 -219h256v-117h-266l-47 -530q-8 -98 -41 -171t-74 -112q-105 -100 -272 -100l-134 12v123
q68 -10 137 -10t141 43z" />
    <glyph glyph-name="Euro.osf" horiz-adv-x="1165" 
d="M92 399v99h135q-10 74 -4 176h-131v98h152q53 188 211 309t409 121q93 0 168 -18l25 -6l-33 -121q-78 20 -162 20q-182 0 -301 -85t-166 -220h568l-23 -98h-571q-14 -90 2 -176h538l-22 -99h-486q49 -133 168 -215t297 -82q98 0 158 21l23 6l28 -123q-90 -31 -211 -31
q-242 0 -400 119t-216 305h-156z" />
    <glyph glyph-name="zero.numerator" horiz-adv-x="813" 
d="M406 635q197 0 196 360q0 360 -196 361q-197 0 -197 -360t197 -361zM407 528q-313 0 -313 466t312 466t313 -466q0 -466 -312 -466z" />
    <glyph glyph-name="one.numerator" horiz-adv-x="655" 
d="M78 549v98h213v580l6 63h-4q-10 -16 -33 -39l-113 -108l-73 76l225 221h107v-793h208v-98h-536z" />
    <glyph glyph-name="two.numerator" horiz-adv-x="743" 
d="M76 623q0 89 46 159t111 117q66 47 131 89q156 101 156 210q0 66 -47 112t-107 46t-107 -25q-46 -25 -66 -49l-23 -27l-74 72q10 14 30 37q20 24 90 60q69 36 144 36q127 0 202 -72t75 -170t-45 -164t-110 -109q-66 -44 -130 -84q-156 -97 -159 -214h360v113h100v-211
h-571q-6 45 -6 74z" />
    <glyph glyph-name="three.numerator" horiz-adv-x="751" 
d="M104 1231v209h549v-74l-247 -289q102 -10 180 -75q78 -64 78 -184t-88 -205t-218 -85q-88 0 -160 34t-102 69l-28 33l71 75q7 -12 23 -29t74 -47t126 -30q70 0 128 52t59 130q-1 78 -61 125t-140 47h-65l-29 64l215 254l43 41v4q-25 -6 -57 -7h-248v-112h-103z" />
    <glyph glyph-name="four.numerator" horiz-adv-x="780" 
d="M178 881h301v329l8 88h-6q-18 -41 -43 -73l-260 -340v-4zM479 549v235h-432v76l434 580h111v-559h133v-97h-133v-235h-113z" />
    <glyph glyph-name="five.numerator" horiz-adv-x="741" 
d="M344 528q-82 0 -152 33t-98 66l-31 32l74 72q29 -37 87 -68t130 -31t133 57q61 56 61 139q0 82 -60 140q-62 58 -150 58q-41 0 -81 -12t-58 -25l-19 -12l-69 24l51 439h452v-209h-102v112h-256l-16 -172l-13 -77h4q51 27 123 26q133 0 221 -85q89 -85 89 -208t-92 -211
t-228 -88z" />
    <glyph glyph-name="six.numerator" horiz-adv-x="776" 
d="M207 893q1 -92 59 -175t143 -83t132 57q47 58 47 144t-51 139t-131 53t-140 -43q-59 -43 -59 -92zM402 528q-135 0 -225 115q-89 115 -89 298t90 344q45 79 123 127t173 48t163 -30l22 -11l-45 -96q-63 33 -133 33q-109 0 -179 -90t-91 -224h4q33 35 88 58t109 22
q129 0 210 -80q80 -80 80 -214t-82 -218q-83 -82 -218 -82z" />
    <glyph glyph-name="seven.numerator" horiz-adv-x="704" 
d="M168 1343v-112h-100v209h600v-76l-414 -815h-121l377 751l29 43v5q-25 -4 -50 -5h-321z" />
    <glyph glyph-name="eight.numerator" horiz-adv-x="792" 
d="M394 629q75 0 133 45q59 45 59 110t-56 103t-123 67l-92 41q-117 -90 -116 -190q0 -80 60 -128t135 -48zM569 1219q0 65 -50 101t-118 36q-67 0 -115 -34t-48 -101t65 -107q65 -39 114 -60q48 -20 62 -26q90 90 90 191zM702 791q0 -117 -89 -191t-215 -74t-219 74
t-93 201q0 59 32 114t60 81q29 26 58 44q-111 76 -111 187t82 171q83 60 195 60t196 -62t84 -178t-117 -233q137 -76 137 -194z" />
    <glyph glyph-name="nine.numerator" horiz-adv-x="776" 
d="M364 1356q-84 0 -130 -58t-46 -144q0 -87 52 -140t134 -53q83 0 138 44q55 45 55 117t-60 153q-59 81 -143 81zM297 635q104 0 176 91t90 222h-4q-78 -82 -203 -82q-126 0 -204 82t-78 215t82 215t218 82t225 -114q89 -115 89 -297q0 -281 -169 -437q-91 -84 -207 -84
t-173 33l-22 10l43 97q63 -33 137 -33z" />
    <glyph glyph-name="zero.denominator" horiz-adv-x="813" 
d="M406 86q197 0 196 360q0 360 -196 361q-197 -1 -197 -361t197 -360zM407 -20q-313 0 -313 466t312 465q312 1 313 -465q0 -466 -312 -466z" />
    <glyph glyph-name="one.denominator" horiz-adv-x="655" 
d="M78 0v98h213v580l6 63h-4q-10 -16 -33 -39l-113 -108l-73 76l225 221h107v-793h208v-98h-536z" />
    <glyph glyph-name="two.denominator" horiz-adv-x="741" 
d="M74 74q0 88 46 158t111 118q67 47 131 89q156 102 156 210q0 66 -47 112t-107 46t-107 -25q-46 -25 -69 -49l-20 -26l-74 71q10 14 30 37t90 59q69 36 144 37q127 -1 202 -73t75 -170t-45 -162q-45 -66 -110 -110q-66 -44 -130 -84q-155 -96 -160 -214h361v113h100v-211
h-571q-6 45 -6 74z" />
    <glyph glyph-name="three.denominator" horiz-adv-x="751" 
d="M104 682v209h549v-74l-247 -289q102 -10 180 -74t78 -185t-88 -205t-218 -84q-88 0 -160 34t-102 68l-28 33l71 75q7 -12 23 -29t74 -47t126 -30q70 0 128 52t59 130q-1 78 -61 125t-140 47h-65l-29 64l215 254l43 41v4q-25 -6 -57 -6h-248v-113h-103z" />
    <glyph glyph-name="four.denominator" horiz-adv-x="778" 
d="M176 332h301v330l8 88h-6q-18 -41 -43 -74l-260 -340v-4zM477 0v236h-432v75l434 580h111v-559h133v-96h-133v-236h-113z" />
    <glyph glyph-name="five.denominator" horiz-adv-x="741" 
d="M344 -20q-82 0 -152 32t-98 66l-31 33l74 71q30 -37 87 -68q58 -30 130 -30t133 56t61 140t-60 140q-62 57 -150 57q-41 0 -81 -12t-58 -25l-19 -12l-69 25l51 438h452v-209h-102v113h-256l-16 -172l-13 -78h4q51 27 123 26q133 0 221 -85q89 -86 89 -208t-92 -210
t-228 -88z" />
    <glyph glyph-name="six.denominator" horiz-adv-x="776" 
d="M207 344q1 -92 59 -175t143 -83t132 57t47 143t-51 140q-51 53 -131 53t-140 -43q-59 -43 -59 -92zM402 -20q-135 0 -225 114q-89 115 -89 298t90 344q45 79 123 127t173 48t163 -30l22 -11l-45 -96q-63 33 -133 33q-109 0 -179 -90t-91 -223h4q33 36 88 58t109 21
q129 1 210 -79q80 -80 80 -215t-82 -218q-83 -81 -218 -81z" />
    <glyph glyph-name="seven.denominator" horiz-adv-x="704" 
d="M489 795h-321v-113h-100v209h600v-76l-414 -815h-121l377 752l29 43v4q-25 -4 -50 -4z" />
    <glyph glyph-name="eight.denominator" horiz-adv-x="792" 
d="M394 82q75 0 133 45q59 45 59 110t-56 103t-123 68t-92 41q-117 -90 -116 -191q0 -80 60 -128t135 -48zM569 672q0 66 -50 102t-118 35q-67 0 -115 -34t-48 -101t65 -107q65 -39 114 -60q48 -20 62 -26q90 90 90 191zM702 244q0 -118 -89 -190q-89 -74 -215 -74t-219 74
t-93 200q0 58 32 114t60 82q29 26 58 44q-111 76 -111 186t82 171q83 60 195 60t196 -62t84 -178t-117 -233q137 -76 137 -194z" />
    <glyph glyph-name="nine.denominator" horiz-adv-x="776" 
d="M188 606q0 -88 52 -141t134 -53q83 0 138 44t55 116t-60 154q-59 81 -143 81t-130 -57q-46 -56 -46 -144zM297 86q104 0 176 91t90 222h-4q-78 -82 -203 -82q-126 0 -204 82t-78 215t82 215t218 82t225 -114q89 -115 89 -297q0 -281 -169 -437q-91 -83 -207 -83t-173 32
l-22 11l43 96q63 -33 137 -33z" />
    </font>
</defs>
</svg>
